<svg version="1.1" id="backgrounGraphic" xmlns="http://www.w3.org/2000/svg" xmlns:xlink="http://www.w3.org/1999/xlink" x="0px" y="0px" viewBox="0 0 1280 720" enable-background="new 0 0 1280 720" xml:space="preserve"><g id="backgroundGrassyField"><rect x="-0.3" y="-0.2" fill="#2E9F1F" width="1280" height="720"/><g><g><path fill="none" stroke="#1A6610" stroke-width="2" stroke-linecap="round" stroke-miterlimit="10" d="M261.4,92.1c0.4,0,6,0.5,7.6,9.1"/><path fill="none" stroke="#1A6610" stroke-width="2" stroke-linecap="round" stroke-miterlimit="10" d="M266,81.6c0,0,9.4,3.1,13.5,16.4"/><path fill="none" stroke="#1A6610" stroke-width="2" stroke-linecap="round" stroke-miterlimit="10" d="M284.3,89.1c0,0,3.9,1.4,3.9,7.6"/><path fill="none" stroke="#1A6610" stroke-width="2" stroke-linecap="round" stroke-miterlimit="10" d="M294,101.6c0,0-0.8-11.9,4.1-12.1"/><path fill="none" stroke="#1A6610" stroke-width="2" stroke-linecap="round" stroke-miterlimit="10" d="M304.3,100.8c0,0,0.8-9.1,10.9-13.1"/><path fill="none" stroke="#1A6610" stroke-width="2" stroke-linecap="round" stroke-miterlimit="10" d="M366.2,293.8c0,0-3.8-4.8-6.2-5.2"/><path fill="none" stroke="#1A6610" stroke-width="2" stroke-linecap="round" stroke-miterlimit="10" d="M390.8,292.8c0,0-3.7-7-7-9.7"/><path fill="none" stroke="#1A6610" stroke-width="2" stroke-linecap="round" stroke-miterlimit="10" d="M398.7,294.8c0,0-0.5-5.7-4-10.8"/><path fill="none" stroke="#1A6610" stroke-width="2" stroke-linecap="round" stroke-miterlimit="10" d="M151.5,376.5c0,0,1.3-4.8-6.8-10"/><path fill="none" stroke="#1A6610" stroke-width="2" stroke-linecap="round" stroke-miterlimit="10" d="M163.2,377c0,0,0.5-5.7-3.7-7.5"/><path fill="none" stroke="#1A6610" stroke-width="2" stroke-linecap="round" stroke-miterlimit="10" d="M171,378.3c0,0-0.3-8.3,6-11.7"/><path fill="none" stroke="#1A6610" stroke-width="2" stroke-linecap="round" stroke-miterlimit="10" d="M335.5,537.5c0-0.5,0-11.3-10.2-18"/><path fill="none" stroke="#1A6610" stroke-width="2" stroke-linecap="round" stroke-miterlimit="10" d="M349.3,534.8c0,0,0.3-7.3-4.3-11"/><path fill="none" stroke="#1A6610" stroke-width="2" stroke-linecap="round" stroke-miterlimit="10" d="M360.8,535.2c0,0,1.5-6.5-3.8-7.7"/><path fill="none" stroke="#1A6610" stroke-width="2" stroke-linecap="round" stroke-miterlimit="10" d="M368.8,535.5c0,0-1.7-4.7,2.3-7.7"/><path fill="none" stroke="#1A6610" stroke-width="2" stroke-linecap="round" stroke-miterlimit="10" d="M378.3,535.3c0,0-1.7-0.7,3.2-6.3"/><path fill="none" stroke="#1A6610" stroke-width="2" stroke-linecap="round" stroke-miterlimit="10" d="M390.5,535.5c0,0-2.2-5.5,12.5-16.2"/><path fill="none" stroke="#1A6610" stroke-width="2" stroke-linecap="round" stroke-miterlimit="10" d="M43.4,638.6c0,0-2.3-16.1-10.3-18.6"/><path fill="none" stroke="#1A6610" stroke-width="2" stroke-linecap="round" stroke-miterlimit="10" d="M56,636.4c0,0,0.8-12.3-5.4-14.3"/><path fill="none" stroke="#1A6610" stroke-width="2" stroke-linecap="round" stroke-miterlimit="10" d="M67.9,635.6c0,0-0.9-11.8-5.3-11.8"/><path fill="none" stroke="#1A6610" stroke-width="2" stroke-linecap="round" stroke-miterlimit="10" d="M76.1,635.9c-0.1-0.4-0.4-8.6,8.9-15.1"/><path fill="none" stroke="#1A6610" stroke-width="2" stroke-linecap="round" stroke-miterlimit="10" d="M90.8,636c0,0,0.1-6,11.9-8.9"/><path fill="none" stroke="#1A6610" stroke-width="2" stroke-linecap="round" stroke-miterlimit="10" d="M463.8,646.6c0,0,0.8-7.5-6.5-9.1"/><path fill="none" stroke="#1A6610" stroke-width="2" stroke-linecap="round" stroke-miterlimit="10" d="M474.4,645.6c0,0-1.5-7.9-5-10.3"/><path fill="none" stroke="#1A6610" stroke-width="2" stroke-linecap="round" stroke-miterlimit="10" d="M481,645.7c0,0-0.2-7.3,3.2-9.2"/><path fill="none" stroke="#1A6610" stroke-width="2" stroke-linecap="round" stroke-miterlimit="10" d="M493.1,645.3c0,0,2.9-6.4,7.8-9"/><path fill="none" stroke="#1A6610" stroke-width="2" stroke-linecap="round" stroke-miterlimit="10" d="M563.7,314.7c0,0-0.3-8.7-6-10.3"/><path fill="none" stroke="#1A6610" stroke-width="2" stroke-linecap="round" stroke-miterlimit="10" d="M570.3,312.3c0,0,0.8-5-2.3-6.5"/><path fill="none" stroke="#1A6610" stroke-width="2" stroke-linecap="round" stroke-miterlimit="10" d="M579.6,313.8c0,0-0.5-9.1,6.5-14.9"/><path fill="none" stroke="#1A6610" stroke-width="2" stroke-linecap="round" stroke-miterlimit="10" d="M745.3,215.8c0,0-2.6-14.5-7.3-14.6"/><path fill="none" stroke="#1A6610" stroke-width="2" stroke-linecap="round" stroke-miterlimit="10" d="M752.5,213c0,0-0.3-10.8-3.1-11.9"/><path fill="none" stroke="#1A6610" stroke-width="2" stroke-linecap="round" stroke-miterlimit="10" d="M763.4,210.4c0,0-0.3-5,4-7.8"/><path fill="none" stroke="#1A6610" stroke-width="2" stroke-linecap="round" stroke-miterlimit="10" d="M818.9,426.8c0,0,0.8-14-6.8-16.3"/><path fill="none" stroke="#1A6610" stroke-width="2" stroke-linecap="round" stroke-miterlimit="10" d="M828,425c-0.1-0.4,0.4-7-3.4-9.1"/><path fill="none" stroke="#1A6610" stroke-width="2" stroke-linecap="round" stroke-miterlimit="10" d="M834.6,424.8c0,0-1.9-10.8,10-15.9"/><path fill="none" stroke="#1A6610" stroke-width="2" stroke-linecap="round" stroke-miterlimit="10" d="M943,696.6c0,0-3.8-13.6-10.1-14.3"/><path fill="none" stroke="#1A6610" stroke-width="2" stroke-linecap="round" stroke-miterlimit="10" d="M954.4,695.6c0,0-0.5-9.9-3.8-10"/><path fill="none" stroke="#1A6610" stroke-width="2" stroke-linecap="round" stroke-miterlimit="10" d="M964.4,696.3c0-0.5,0.9-7.4-1.9-7.9"/><path fill="none" stroke="#1A6610" stroke-width="2" stroke-linecap="round" stroke-miterlimit="10" d="M974.9,696.3c0,0-4.6-9.4,7.3-16.5"/><path fill="none" stroke="#1A6610" stroke-width="2" stroke-linecap="round" stroke-miterlimit="10" d="M1126.5,395.3c-0.2-0.5-4.2-20.7-12.8-18.7"/><path fill="none" stroke="#1A6610" stroke-width="2" stroke-linecap="round" stroke-miterlimit="10" d="M1134.3,392.8c0,0,2-4.2-2.5-8.8"/><path fill="none" stroke="#1A6610" stroke-width="2" stroke-linecap="round" stroke-miterlimit="10" d="M1143.3,390.3c-0.3-0.8-2.7-10.3,1.7-12.5"/><path fill="none" stroke="#1A6610" stroke-width="2" stroke-linecap="round" stroke-miterlimit="10" d="M1151.7,389.7c0,0,1.5-11.7,12.5-14"/><path fill="none" stroke="#1A6610" stroke-width="2" stroke-linecap="round" stroke-miterlimit="10" d="M1197.8,313.7c0-0.7,0.2-8.3,8.3-9.8"/><path fill="none" stroke="#1A6610" stroke-width="2" stroke-linecap="round" stroke-miterlimit="10" d="M1212.2,313.3c0,0,1.2-10.7,12-12.8"/><path fill="none" stroke="#1A6610" stroke-width="2" stroke-linecap="round" stroke-miterlimit="10" d="M973.5,73.5c0,0,0.2-8.8-5.3-9.7"/><path fill="none" stroke="#1A6610" stroke-width="2" stroke-linecap="round" stroke-miterlimit="10" d="M987.7,73.7c0,0-1.2-9.8-6-11.2"/><path fill="none" stroke="#1A6610" stroke-width="2" stroke-linecap="round" stroke-miterlimit="10" d="M997.8,73.5c0,0-3.8-10,7.3-14.7"/><path fill="none" stroke="#1A6610" stroke-width="2" stroke-linecap="round" stroke-miterlimit="10" d="M979.1,275.6c0,0-2.3-18-7.8-19.3"/><path fill="none" stroke="#1A6610" stroke-width="2" stroke-linecap="round" stroke-miterlimit="10" d="M989.1,274.6c0,0-0.5-9.1-3.3-10.9"/><path fill="none" stroke="#1A6610" stroke-width="2" stroke-linecap="round" stroke-miterlimit="10" d="M997.6,273.8c0,0,2.1-7.8-2.1-9.8"/><path fill="none" stroke="#1A6610" stroke-width="2" stroke-linecap="round" stroke-miterlimit="10" d="M1006.9,274c0-0.5-1.5-22.1,5.8-22.8"/><path fill="none" stroke="#1A6610" stroke-width="2" stroke-linecap="round" stroke-miterlimit="10" d="M1020,274.1c0,0-0.8-9,5.9-11.1"/></g><g><path fill="#525B68" d="M584,712.7c-2.6,1.8-5.9,3.5-9.5,5c-0.5,0.2-1,0.4-1.5,0.6c-1.6,0.6-3.2,1.2-4.9,1.7h-89.2c-0.3-0.1-0.6-0.3-0.9-0.4c-0.2-0.1-0.4-0.2-0.6-0.3c-0.3-0.2-0.7-0.3-1-0.5c0,0,0,0,0,0c-3.6-5.7-2.8-23.3-2.8-23.3s10.1-23.6,17.3-27c21.1-9.9,72-4.6,94.8,8.7c3,3.8,6.2,12.3,6.5,13.4C592.7,692,585,712,584,712.7z"/><path fill="#343940" d="M478,719.6c0.3,0.1,0.6,0.3,0.9,0.4h-1.4c-0.1-0.1-0.1-0.1-0.2-0.2c0,0,0,0,0,0c-0.1-0.1-0.3-0.3-0.4-0.4c-0.1-0.1-0.1-0.2-0.2-0.2c-0.1-0.1-0.2-0.3-0.3-0.4c0.3,0.2,0.6,0.3,1,0.5C477.6,719.4,477.8,719.5,478,719.6z"/><path fill="#343940" d="M598.3,695.2c0,0.2-0.1,1-0.5,2.1c-1.3,4.5-5.2,14.6-7,18.4c-0.4,0.8-0.7,1.4-0.8,1.5c-1.4,1-3,1.9-4.8,2.8h-17.1c1.7-0.5,3.3-1.1,4.9-1.7c0.5-0.2,1-0.4,1.5-0.6c3.7-1.5,6.9-3.2,9.5-5c1-0.7,8.7-20.7,8.3-22c-0.3-1.2-3.5-9.7-6.5-13.4c0,0,0,0,0,0c0.1,0.1,0.3,0.2,0.4,0.3c0.2,0.1,0.4,0.2,0.6,0.3c0.6,0.4,1.3,0.8,1.8,1.2c0.1,0,0.1,0.1,0.2,0.1c0.6,0.4,1.3,0.9,1.8,1.4c3,2.4,6.8,12,7.5,14.3C598.3,695,598.3,695.1,598.3,695.2z"/><path fill="none" stroke="#000000" stroke-width="2" stroke-linecap="round" stroke-miterlimit="10" d="M584.8,720c0,0,4.1-1.5,4.9-2.8c3.8-5.3,8.2-16.3,8.6-22.1c0.3-4-3.8-11.6-6.9-14.3c-19.4-17.1-78.1-23.3-101.8-11.7c-6.9,3.4-14.3,18.8-15.8,26.3c-0.6,3-0.4,10,0.3,15.6c0.7,5.5,3.6,8.9,3.6,8.9"/></g><g><path fill="#343940" d="M869.3,720h-11.5c27.7-21.7,59.1-58.7,58-73.3c-1.1-14.1-34-59-34-59s-16.6-16.2-35.5-30.8c0,0,0,0,0,0c0,0,0,0,0.1,0c1.3,1,2.6,1.9,3.9,2.9c2.6,2,5.2,4,7.7,6c0.1,0,0.1,0.1,0.1,0.1c0.6,0.4,1.1,0.9,1.6,1.3c0.1,0.1,0.2,0.2,0.3,0.2c0.5,0.4,1,0.8,1.5,1.2c0.1,0.1,0.2,0.2,0.3,0.3c0.6,0.5,1.1,0.9,1.7,1.4c0,0,0,0,0,0c0.5,0.5,1.1,0.9,1.6,1.3c0.3,0.2,0.5,0.4,0.8,0.7c0.3,0.2,0.5,0.4,0.8,0.6c0.3,0.3,0.6,0.6,1,0.8c0.1,0.1,0.3,0.3,0.4,0.4c11.5,9.8,19.7,17.9,19.7,17.9s32.9,45,34,59C922.7,664.8,895.4,698,869.3,720z"/><path fill="#525B68" d="M857.7,720H654.4c-8.8-19.8-19.9-49.9-16.4-63.5c13-50.3,119.4-117.6,171.3-117.7c9.3,0,23.3,8.1,36.9,18.1c18.9,14.5,35.5,30.8,35.5,30.8s32.9,44.9,34,59C916.8,661.3,885.4,698.3,857.7,720z"/><path fill="none" stroke="#000000" stroke-width="2" stroke-linecap="round" stroke-miterlimit="10" d="M654.4,720c0,0-21-46.3-16.5-61.6c6.3-21.8,28.6-49.7,57.5-70.4c38.1-27.2,76.5-44.6,106.2-48.8c23-3.3,48.1,17.3,85.3,53c3.3,3.2,14.5,18.7,19.9,27.7c7.9,12.9,14.6,22.5,15.2,31.4c1.4,21.8-52.6,69.1-52.6,68.8"/></g><g><path fill="#525B68" d="M587.3,654.3c5.7-1.1,75.3-80,75.3-80s2.6-7.9,1.7-10.3c-2.8-7.2-12.2-16.1-23-24.5c-16.2-11.8-33.3-21.3-34.6-21c-10.8,2.8-26.1,34.1-27,35.2c-2,2.4-48.5,20.4-52.7,35.8c-3.8,13.9,20.4,45.7,30.8,57.2C564.1,648.2,585.7,654.7,587.3,654.3z"/><path fill="#343940" d="M670,574c0.5-2.1,0.8-4.3,0.3-5.4c-0.2-0.5-0.4-1-0.7-1.6c0,0,0,0,0-0.1c-0.3-0.5-0.6-1-0.9-1.6c0,0-0.1-0.1-0.1-0.1c-0.3-0.5-0.7-1.1-1-1.6c0,0-0.1-0.1-0.1-0.1c-0.4-0.6-0.8-1.1-1.3-1.7c0,0,0,0,0,0c-0.9-1.2-1.9-2.4-3.1-3.6c0,0,0,0,0,0c-0.5-0.6-1.1-1.2-1.7-1.8c0,0-0.1-0.1-0.1-0.1c-0.6-0.6-1.2-1.2-1.8-1.8c0,0-0.1-0.1-0.1-0.1c-0.7-0.7-1.4-1.3-2.1-2c-1.3-1.2-2.7-2.4-4.1-3.6c-0.1-0.1-0.1-0.1-0.2-0.2c-0.7-0.6-1.4-1.1-2-1.7c-0.1-0.1-0.2-0.2-0.3-0.3c-0.7-0.5-1.3-1.1-2-1.6c-0.1-0.1-0.3-0.2-0.4-0.3c-0.7-0.5-1.3-1-2-1.5c-0.2-0.1-0.3-0.3-0.5-0.4c-0.5-0.4-1.1-0.8-1.6-1.2c-0.3-0.2-0.6-0.5-1-0.7c-0.4-0.3-0.9-0.7-1.4-1c-0.2-0.1-0.4-0.3-0.6-0.4c0,0,0.1,0,0.1,0.1c10.8,8.4,20.3,17.4,23,24.5c0.9,2.4-1.7,10.3-1.7,10.3s-69.6,78.9-75.3,80c-1.7,0.3-23.3-6.1-29.5-7.7c0,0,0,0,0,0c0.1,0.2,0.3,0.3,0.4,0.5c0,0,0,0,0.1,0.1c0.5,0.6,1.1,1.1,1.5,1.6c0,0,0.1,0.1,0.1,0.1c0.1,0.1,0.3,0.3,0.4,0.4c0,0,0.1,0.1,0.1,0.1c0.2,0.2,0.4,0.3,0.5,0.5c0.1,0.1,0.2,0.2,0.3,0.2c0.1,0.1,0.1,0.1,0.2,0.2c0.1,0.1,0.2,0.2,0.4,0.3c0,0,0,0,0.1,0c0.1,0.1,0.2,0.1,0.3,0.2c0,0,0,0,0.1,0c0.1,0,0.2,0.1,0.2,0.1c1.7,0.2,13.2,3.6,21.8,5.9c3.2,0.9,6,1.6,7.6,1.9c0.8,0.2,1.4,0.2,1.6,0.2c0.6-0.1,1.8-1,3.5-2.5c15.4-13.5,71.9-77.5,71.9-77.5S669.4,576.5,670,574z"/><path fill="none" stroke="#000000" stroke-width="2" stroke-miterlimit="10" d="M670.3,568.5c-0.2-0.5-0.4-1-0.7-1.6c0,0,0,0,0-0.1c-0.3-0.5-0.6-1-0.9-1.6c0,0-0.1-0.1-0.1-0.1c-0.3-0.5-0.7-1.1-1-1.6c0,0-0.1-0.1-0.1-0.1c-0.4-0.6-0.8-1.1-1.3-1.7c0,0,0,0,0,0c-0.9-1.2-1.9-2.4-3.1-3.6c0,0,0,0,0,0c-0.5-0.6-1.1-1.2-1.7-1.8c0,0-0.1-0.1-0.1-0.1c-0.6-0.6-1.2-1.2-1.8-1.8c0,0-0.1-0.1-0.1-0.1c-0.7-0.7-1.4-1.3-2.1-2c-1.3-1.2-2.7-2.4-4.1-3.6c-0.1-0.1-0.1-0.1-0.2-0.2c-0.7-0.6-1.4-1.1-2-1.7c-0.1-0.1-0.2-0.2-0.3-0.3c-0.7-0.5-1.3-1.1-2-1.6c-0.1-0.1-0.3-0.2-0.4-0.3c-0.7-0.5-1.3-1-2-1.5c-0.2-0.1-0.3-0.3-0.5-0.4c-0.5-0.4-1.1-0.8-1.6-1.2c-0.3-0.2-0.6-0.5-1-0.7c-0.4-0.3-0.9-0.7-1.4-1c-0.2-0.1-0.4-0.3-0.6-0.4c0,0,0.1,0,0.1,0.1c-16.2-11.8-33.3-21.3-34.6-21c-10.8,2.8-26.1,34.1-27,35.2c-2,2.4-48.5,20.4-52.7,35.8c-3.8,13.9,20.4,45.7,30.8,57.2c0,0,0,0,0,0c0.1,0.2,0.3,0.3,0.4,0.5c0,0,0,0,0.1,0.1c0.5,0.6,1.1,1.1,1.5,1.6c0,0,0.1,0.1,0.1,0.1c0.1,0.1,0.3,0.3,0.4,0.4c0,0,0.1,0.1,0.1,0.1c0.2,0.2,0.4,0.3,0.5,0.5c0.1,0.1,0.2,0.2,0.3,0.2c0.1,0.1,0.1,0.1,0.2,0.2c0.1,0.1,0.2,0.2,0.4,0.3c0,0,0,0,0.1,0c0.1,0.1,0.2,0.1,0.3,0.2c0,0,0,0,0.1,0c0.1,0,0.2,0.1,0.2,0.1c1.7,0.2,13.2,3.6,21.8,5.9c3.2,0.9,6,1.6,7.6,1.9c0.8,0.2,1.4,0.2,1.6,0.2c0.6-0.1,1.8-1,3.5-2.5c15.4-13.5,71.9-77.5,71.9-77.5s0.8-2.4,1.3-4.9C670.5,571.8,670.8,569.6,670.3,568.5z"/></g><g><path fill="#525B68" d="M690,569c5.8-0.9,37.2-21.3,40.1-29.1c1.5,0.6,2.7,1.2,3.7,1.7c-7.1-3.5-27.8-11.3-35.8-9.8c-2.1,0.4-17.5,21.4-16,29.7c0.4,2,1.7,4.7,3.7,7C687,569,688.5,569.2,690,569z"/><path fill="#343940" d="M686,568.9c0.1,0.2,0.3,0.3,0.4,0.5c0.1,0.1,0.3,0.3,0.4,0.4c0.2,0.2,0.4,0.4,0.6,0.6c0.1,0.1,0.2,0.2,0.3,0.3c0.3,0.2,0.5,0.4,0.8,0.6c0.1,0.1,0.2,0.1,0.3,0.2c0.3,0.2,0.6,0.4,0.9,0.6c0.1,0,0.1,0.1,0.2,0.1c0.3,0.2,0.6,0.3,0.9,0.5c0,0,0.1,0,0.1,0.1c0.3,0.2,0.7,0.3,1,0.4c0.1,0,0.1,0.1,0.2,0.1c0.4,0.1,0.7,0.2,1.1,0.3c0.1,0,0.1,0,0.2,0c0.4,0.1,0.8,0.1,1.1,0.1c0.1,0,0.1,0,0.2,0c0.4,0,0.8,0,1.3-0.1c2.7-0.4,10.6-4.8,18.8-10.3c10.8-7.2,21.9-16.2,21.6-20c0,0,0,0,0,0c0,0,0-0.1-0.1-0.1c0,0,0,0,0,0c-0.2-0.2-0.8-0.6-1.8-1.1c0,0-0.1,0-0.1-0.1c-0.1-0.1-0.3-0.2-0.5-0.2c-1-0.5-2.3-1.1-3.7-1.7c-2.9,7.8-34.3,28.2-40.1,29.1c-1.5,0.2-3,0-4.4-0.5c0,0,0,0,0,0C685.7,568.6,685.8,568.8,686,568.9z"/><path fill="none" stroke="#231F20" stroke-width="2" stroke-miterlimit="10" d="M736.2,543C736.2,543,736.2,543,736.2,543c-0.2-0.2-0.9-0.6-1.8-1.1c0,0-0.1,0-0.1-0.1c-0.1-0.1-0.3-0.2-0.5-0.2c-7.1-3.5-27.8-11.3-35.8-9.8c-2.1,0.4-17.5,21.4-16,29.7c0.4,2,1.7,4.7,3.7,7c0,0,0,0,0,0c0.1,0.1,0.2,0.2,0.3,0.4c0.1,0.2,0.3,0.3,0.4,0.5c0.1,0.1,0.3,0.3,0.4,0.4c0.2,0.2,0.4,0.4,0.6,0.6c0.1,0.1,0.2,0.2,0.3,0.3c0.3,0.2,0.5,0.4,0.8,0.6c0.1,0.1,0.2,0.1,0.3,0.2c0.3,0.2,0.6,0.4,0.9,0.6c0.1,0,0.1,0.1,0.2,0.1c0.3,0.2,0.6,0.3,0.9,0.5c0,0,0.1,0,0.1,0.1c0.3,0.2,0.7,0.3,1,0.4c0.1,0,0.1,0.1,0.2,0.1c0.4,0.1,0.7,0.2,1.1,0.3c0.1,0,0.1,0,0.2,0c0.4,0.1,0.8,0.1,1.1,0.1c0.1,0,0.1,0,0.2,0c0.4,0,0.8,0,1.3-0.1c2.7-0.4,10.6-4.8,18.8-10.3c10.8-7.2,21.9-16.2,21.6-20c0,0,0,0,0,0C736.3,543.1,736.3,543.1,736.2,543z"/></g><g><path fill="#525B68" d="M654.8,474.8c-5.8-2.4-10.2-4.9-10.2-6c0-0.1,0-0.2,0-0.4c8.5,4.1,23.8,9.3,30.3,7.9c7.5-1.6,22-11.6,24-19c2.9-10.8-4.6-37.7-10-48.2c1,0.1,1.8,0.1,2.3,0.2c-5.8-0.8-43.2-1.9-48.9,3.5c-1,1,2.3,53.3,2.3,56C644.7,469.9,649,472.4,654.8,474.8z"/><path fill="#343940" d="M699,457.3c-2,7.4-16.5,17.4-24,19c-6.6,1.4-21.8-3.8-30.3-7.9c0,0.2,0,0.3,0,0.4c0,1.1,4.4,3.5,10.2,6c6.5,2.7,14.9,5.5,21.1,6.1c2,0.2,3.7,0.2,5.1-0.1c7-1.5,20.3-10.4,23.5-17.7c0.2-0.5,0.4-0.9,0.5-1.3c1-3.7,0.8-9.2-0.1-15.2c-1.5-10-5-21.6-8.2-29.2c0-0.1-0.1-0.2-0.1-0.2c-0.1-0.1-0.1-0.3-0.2-0.4c-0.4-0.9-0.7-1.7-1.1-2.4c0-0.1-0.1-0.1-0.1-0.2c-0.8-1.6-1.6-2.9-2.2-3.7c-0.4-0.4-0.7-0.8-1-1c0,0-0.1,0-0.1,0c0,0,0,0,0,0c0,0-0.1,0-0.2,0c0,0,0,0,0,0c-0.1,0-0.3,0-0.4-0.1c-0.5-0.1-1.3-0.1-2.3-0.2C694.4,419.7,701.9,446.5,699,457.3z"/><path fill="none" stroke="#231F20" stroke-width="2" stroke-miterlimit="10" d="M704.9,446.6c-1.5-10-5-21.6-8.2-29.2c0-0.1-0.1-0.2-0.1-0.2c-0.1-0.1-0.1-0.3-0.2-0.4c-0.4-0.9-0.7-1.7-1.1-2.4c0-0.1-0.1-0.1-0.1-0.2c-0.8-1.6-1.6-2.9-2.2-3.7c-0.4-0.4-0.7-0.8-1-1c0,0-0.1,0-0.1,0c0,0,0,0,0,0c0,0-0.1,0-0.2,0c0,0,0,0,0,0c-0.1,0-0.3,0-0.4-0.1c-0.1,0-0.3,0-0.5-0.1c-7.1-0.8-42.9-1.7-48.4,3.5c-1,1,2.3,53.3,2.3,56c0,1.1,4.4,3.5,10.2,6c6.5,2.7,14.9,5.5,21.1,6.1c2,0.2,3.7,0.2,5.1-0.1c7-1.5,20.3-10.4,23.5-17.7c0.2-0.5,0.4-0.9,0.5-1.3C706,458.2,705.8,452.7,704.9,446.6z"/></g><g><path fill="#525B68" d="M604,478c5.8-5.8,11.3-22.2,12.3-30.3c1.4-11-0.3-34.3-5.7-44c-9.3-17-47.2-50.7-59.7-61.4c-11.1-5.5-35.9-3.5-46,1.5c-17.2,8.6-47,62-46.7,61c0.3-1-28.7,43.5-24,58.7c2.6,8.4,10.8,17.5,21.3,25.9c17.8,12.6,39.9,22.3,53.7,22.6C534.5,512.5,586.1,495.7,604,478z"/><path fill="#343940" d="M474.7,502.2c0.6,0.3,1.1,0.6,1.7,0.9c0.3,0.1,0.5,0.3,0.8,0.4c0.3,0.2,0.7,0.4,1,0.6c0.3,0.1,0.5,0.3,0.8,0.4c0.3,0.2,0.7,0.4,1,0.5c0.3,0.1,0.5,0.3,0.8,0.4c0.5,0.2,0.9,0.5,1.4,0.7c0.3,0.2,0.6,0.3,0.9,0.4c0.4,0.2,0.8,0.4,1.3,0.6c0.3,0.1,0.5,0.2,0.8,0.4c0.3,0.2,0.7,0.3,1,0.5c0.3,0.1,0.5,0.2,0.8,0.4c0.4,0.2,0.7,0.3,1.1,0.5c0.2,0.1,0.5,0.2,0.7,0.3c0.6,0.2,1.1,0.5,1.7,0.7c0.2,0.1,0.5,0.2,0.7,0.3c0.4,0.2,0.7,0.3,1.1,0.4c0.3,0.1,0.5,0.2,0.8,0.3c0.3,0.1,0.7,0.3,1,0.4c0.3,0.1,0.5,0.2,0.8,0.3c0.4,0.1,0.8,0.3,1.1,0.4c0.3,0.1,0.5,0.2,0.8,0.3c0.5,0.2,0.9,0.3,1.4,0.5c0.2,0.1,0.5,0.2,0.7,0.2c0.3,0.1,0.6,0.2,1,0.3c0.3,0.1,0.5,0.2,0.8,0.2c0.3,0.1,0.6,0.2,0.9,0.3c0.2,0.1,0.5,0.1,0.7,0.2c0.4,0.1,0.9,0.2,1.3,0.4c0.3,0.1,0.6,0.1,0.8,0.2c0.3,0.1,0.6,0.2,1,0.2c0.2,0.1,0.5,0.1,0.7,0.2c0.3,0.1,0.6,0.1,0.8,0.2c0.2,0.1,0.5,0.1,0.7,0.2c0.3,0.1,0.6,0.1,0.9,0.2c0.2,0,0.4,0.1,0.7,0.1c0.5,0.1,0.9,0.2,1.4,0.2c0.2,0,0.4,0.1,0.7,0.1c0.3,0,0.5,0.1,0.8,0.1c0.2,0,0.4,0,0.7,0.1c0.2,0,0.5,0,0.7,0.1c0.2,0,0.4,0,0.6,0c0.3,0,0.6,0,0.9,0c0.1,0,0.3,0,0.4,0c5.3,0.1,11.7-0.6,18.8-1.8c6.1-1.1,12.7-2.7,19.4-4.6c22.3-6.4,45.7-16.8,56.5-27.6c1.7-1.7,3.4-4.3,4.9-7.4c3.7-7.3,6.6-17.2,7.4-22.9c0.7-5.7,0.6-14.6-0.4-23.2c-1-8.2-2.7-16.1-5.3-20.8c-8.5-15.6-41.5-45.5-56.4-58.5c-4.1-3.5-6.8-5.8-7.3-6.2c-0.1-0.1-0.2-0.1-0.2-0.2c-0.6-0.4-1.2-0.7-1.8-1.1c0,0,0,0,0,0c12.5,10.7,50.4,44.4,59.7,61.4c5.3,9.7,7.1,33,5.7,44c-1,8.1-6.5,24.6-12.3,30.3c-17.9,17.7-69.5,34.5-94.7,34c-13.8-0.3-36-10-53.7-22.6c0,0,0,0,0,0c0.1,0.1,0.3,0.2,0.4,0.3c0.4,0.3,0.7,0.6,1.1,0.9c0.2,0.2,0.4,0.3,0.6,0.5c0.3,0.3,0.7,0.5,1,0.8c0.2,0.2,0.4,0.3,0.6,0.5c0.4,0.3,0.8,0.6,1.2,0.9c0.2,0.2,0.4,0.3,0.6,0.4c0.5,0.3,0.9,0.7,1.4,1c0.2,0.2,0.5,0.3,0.7,0.5c0.3,0.2,0.7,0.5,1,0.7c0.3,0.2,0.5,0.3,0.8,0.5c0.3,0.2,0.7,0.4,1,0.7c0.2,0.2,0.5,0.3,0.7,0.5c0.5,0.4,1.1,0.7,1.6,1c0.2,0.1,0.5,0.3,0.7,0.4c0.4,0.2,0.7,0.5,1.1,0.7c0.3,0.2,0.5,0.3,0.8,0.5c0.3,0.2,0.7,0.4,1,0.6c0.3,0.2,0.5,0.3,0.8,0.5c0.4,0.2,0.7,0.4,1.1,0.6C474.2,501.9,474.4,502.1,474.7,502.2z"/><path fill="none" stroke="#231F20" stroke-width="2" stroke-miterlimit="10" d="M621.9,429c-1-8.2-2.7-16.1-5.3-20.8c-8.5-15.6-41.5-45.5-56.4-58.5c-4.1-3.5-6.8-5.8-7.3-6.2c-0.1-0.1-0.2-0.1-0.2-0.2c-0.6-0.4-1.8-1.1-1.8-1.1c-11.1-5.5-35.9-3.5-46,1.5c-17.2,8.6-47,62-46.7,61c0.3-1-28.7,43.5-24,58.7c2.6,8.4,10.8,17.5,21.3,25.9c0,0,0,0,0,0c0.1,0.1,0.3,0.2,0.4,0.3c0.4,0.3,0.7,0.6,1.1,0.9c0.2,0.2,0.4,0.3,0.6,0.5c0.3,0.3,0.7,0.5,1,0.8c0.2,0.2,0.4,0.3,0.6,0.5c0.4,0.3,0.8,0.6,1.2,0.9c0.2,0.2,0.4,0.3,0.6,0.4c0.5,0.3,0.9,0.7,1.4,1c0.2,0.2,0.5,0.3,0.7,0.5c0.3,0.2,0.7,0.5,1,0.7c0.3,0.2,0.5,0.3,0.8,0.5c0.3,0.2,0.7,0.4,1,0.7c0.2,0.2,0.5,0.3,0.7,0.5c0.5,0.4,1.1,0.7,1.6,1c0.2,0.1,0.5,0.3,0.7,0.4c0.4,0.2,0.7,0.5,1.1,0.7c0.3,0.2,0.5,0.3,0.8,0.5c0.3,0.2,0.7,0.4,1,0.6c0.3,0.2,0.5,0.3,0.8,0.5c0.4,0.2,0.7,0.4,1.1,0.6c0.2,0.1,0.5,0.3,0.7,0.4c0.6,0.3,1.1,0.6,1.7,0.9c0.3,0.1,0.5,0.3,0.8,0.4c0.3,0.2,0.7,0.4,1,0.6c0.3,0.1,0.5,0.3,0.8,0.4c0.3,0.2,0.7,0.4,1,0.5c0.3,0.1,0.5,0.3,0.8,0.4c0.5,0.2,0.9,0.5,1.4,0.7c0.3,0.2,0.6,0.3,0.9,0.4c0.4,0.2,0.8,0.4,1.3,0.6c0.3,0.1,0.5,0.2,0.8,0.4c0.3,0.2,0.7,0.3,1,0.5c0.3,0.1,0.5,0.2,0.8,0.4c0.4,0.2,0.7,0.3,1.1,0.5c0.2,0.1,0.5,0.2,0.7,0.3c0.6,0.2,1.1,0.5,1.7,0.7c0.2,0.1,0.5,0.2,0.7,0.3c0.4,0.2,0.7,0.3,1.1,0.4c0.3,0.1,0.5,0.2,0.8,0.3c0.3,0.1,0.7,0.3,1,0.4c0.3,0.1,0.5,0.2,0.8,0.3c0.4,0.1,0.8,0.3,1.1,0.4c0.3,0.1,0.5,0.2,0.8,0.3c0.5,0.2,0.9,0.3,1.4,0.5c0.2,0.1,0.5,0.2,0.7,0.2c0.3,0.1,0.6,0.2,1,0.3c0.3,0.1,0.5,0.2,0.8,0.2c0.3,0.1,0.6,0.2,0.9,0.3c0.2,0.1,0.5,0.1,0.7,0.2c0.4,0.1,0.9,0.2,1.3,0.4c0.3,0.1,0.6,0.1,0.8,0.2c0.3,0.1,0.6,0.2,1,0.2c0.2,0.1,0.5,0.1,0.7,0.2c0.3,0.1,0.6,0.1,0.8,0.2c0.2,0.1,0.5,0.1,0.7,0.2c0.3,0.1,0.6,0.1,0.9,0.2c0.2,0,0.4,0.1,0.7,0.1c0.5,0.1,0.9,0.2,1.4,0.2c0.2,0,0.4,0.1,0.7,0.1c0.3,0,0.5,0.1,0.8,0.1c0.2,0,0.4,0,0.7,0.1c0.2,0,0.5,0,0.7,0.1c0.2,0,0.4,0,0.6,0c0.3,0,0.6,0,0.9,0c0.1,0,0.3,0,0.4,0c5.3,0.1,11.7-0.6,18.8-1.8c6.1-1.1,12.7-2.7,19.4-4.6c22.3-6.4,45.7-16.8,56.5-27.6c1.7-1.7,3.4-4.3,4.9-7.4c3.7-7.3,6.6-17.2,7.4-22.9C623.1,446.5,623,437.6,621.9,429z"/></g><g><path fill="#525B68" d="M777,412.7c10.9-7.1,29.7-28.2,32-41c3.1-17.4-13.4-53-31.2-68.8c-2.4-1.5-4.8-2.5-7.1-3c-13.1-2.9-41.3,26.2-44,31c-0.4,0.7-24.2,41.8-22.3,57c1.2,9.6,10.4,26.5,20.1,35.6c1,0.5,2,1,2.9,1.2C739.6,428.3,766.3,419.6,777,412.7z"/><path fill="#343940" d="M781.4,305.3c-0.5-0.4-1.1-0.8-1.6-1.2c-0.1-0.1-0.2-0.1-0.3-0.2c-0.5-0.4-1.1-0.7-1.6-1.1c0,0,0,0-0.1,0c0,0,0,0,0,0c17.8,15.8,34.4,51.4,31.2,68.8c-2.3,12.8-21.1,33.9-32,41c-10.7,7-37.4,15.6-49.7,12c-1-0.3-1.9-0.7-2.9-1.2c0,0,0,0,0,0c0.1,0.1,0.2,0.2,0.3,0.3c0.2,0.2,0.4,0.4,0.6,0.6c0.2,0.2,0.4,0.3,0.5,0.5c0.2,0.2,0.4,0.3,0.6,0.5c0.2,0.2,0.4,0.3,0.6,0.4c0.2,0.2,0.4,0.3,0.6,0.5c0.2,0.1,0.4,0.3,0.6,0.4c0.2,0.1,0.4,0.3,0.6,0.4c0.2,0.1,0.4,0.2,0.6,0.4c0.2,0.1,0.4,0.2,0.6,0.4c0.2,0.1,0.4,0.2,0.5,0.3c0.2,0.1,0.4,0.2,0.6,0.3c0.1,0.1,0.3,0.1,0.4,0.2c0.2,0.1,0.5,0.2,0.7,0.3c0,0,0,0,0,0c0.4,0.1,0.7,0.3,1.1,0.4c5.6,1.6,14.2,0.7,22.9-1.4c6.4-1.6,12.9-3.8,18.4-6.2c3.3-1.5,6.2-3,8.4-4.4c10.5-6.9,28.5-26.9,31.7-39.8c0.1-0.4,0.2-0.8,0.3-1.2c0,0,0,0,0,0c0.1-0.5,0.2-1.1,0.2-1.7c0-0.1,0-0.2,0-0.2c0.1-0.6,0.1-1.2,0.1-1.8c0-0.1,0-0.2,0-0.3c0-0.6,0-1.2,0-1.8c0-0.1,0-0.2,0-0.3c0-0.7-0.1-1.3-0.1-2c0-0.1,0-0.1,0-0.2c-0.1-0.7-0.2-1.4-0.3-2.2c0,0,0,0,0,0c-0.1-0.7-0.2-1.5-0.4-2.3c0-0.1,0-0.1,0-0.2c-0.1-0.7-0.3-1.5-0.5-2.3c0-0.1,0-0.2-0.1-0.2c-0.2-0.8-0.4-1.6-0.6-2.3c0-0.1,0-0.1,0-0.2c-0.3-1.3-0.7-2.5-1.1-3.8c-0.4-1.3-0.8-2.6-1.3-3.9c0,0,0-0.1,0-0.1c-0.3-0.9-0.6-1.7-1-2.6c0,0,0-0.1,0-0.1c-3.2-8.1-7.5-16.4-12.4-23.8c0,0,0,0,0,0c-0.7-1-1.4-2-2.1-3c-1.5-2.1-3.1-4.2-4.7-6.1c0,0-0.1-0.1-0.1-0.1c-0.6-0.7-1.1-1.3-1.7-1.9c-0.1-0.1-0.1-0.1-0.2-0.2c-0.6-0.6-1.1-1.2-1.7-1.8c0,0-0.1-0.1-0.1-0.1c-1.2-1.2-2.3-2.3-3.5-3.3c-0.1-0.1-0.1-0.1-0.2-0.2c-0.5-0.5-1.1-0.9-1.6-1.4C781.5,305.5,781.4,305.4,781.4,305.3z"/><path fill="none" stroke="#231F20" stroke-width="2" stroke-miterlimit="10" d="M815.4,370.3c0-0.1,0-0.2,0-0.3c0-0.7-0.1-1.3-0.1-2c0-0.1,0-0.1,0-0.2c-0.1-0.7-0.2-1.4-0.3-2.2c0,0,0,0,0,0c-0.1-0.7-0.2-1.5-0.4-2.3c0-0.1,0-0.1,0-0.2c-0.1-0.7-0.3-1.5-0.5-2.3c0-0.1,0-0.2-0.1-0.2c-0.2-0.8-0.4-1.6-0.6-2.3c0-0.1,0-0.1,0-0.2c-0.3-1.3-0.7-2.5-1.1-3.8c-0.4-1.3-0.8-2.6-1.3-3.9c0,0,0-0.1,0-0.1c-0.3-0.9-0.6-1.7-1-2.6c0,0,0-0.1,0-0.1c-3.2-8.1-7.5-16.4-12.4-23.8c0,0,0,0,0,0c-0.7-1-1.4-2-2.1-3c-1.5-2.1-3.1-4.2-4.7-6.1c0,0-0.1-0.1-0.1-0.1c-0.6-0.7-1.1-1.3-1.7-1.9c-0.1-0.1-0.1-0.1-0.2-0.2c-0.6-0.6-1.1-1.2-1.7-1.8c0,0-0.1-0.1-0.1-0.1c-1.2-1.2-2.3-2.3-3.5-3.3c-0.1-0.1-0.1-0.1-0.2-0.2c-0.5-0.5-1.1-0.9-1.6-1.4c-0.1-0.1-0.2-0.2-0.3-0.2c-0.5-0.4-1.1-0.8-1.6-1.2c-0.1-0.1-0.2-0.1-0.3-0.2c-0.5-0.4-1.1-0.7-1.6-1.1c0,0,0,0-0.1,0c0,0,0,0,0,0c-2.4-1.5-4.8-2.5-7.1-3c-13.1-2.9-41.3,26.2-44,31c-0.4,0.7-24.2,41.8-22.3,57c1.2,9.6,10.4,26.5,20.1,35.6c0,0,0,0,0,0c0.1,0.1,0.2,0.2,0.3,0.3c0.2,0.2,0.4,0.4,0.6,0.6c0.2,0.2,0.4,0.3,0.5,0.5c0.2,0.2,0.4,0.3,0.6,0.5c0.2,0.2,0.4,0.3,0.6,0.4c0.2,0.2,0.4,0.3,0.6,0.5c0.2,0.1,0.4,0.3,0.6,0.4c0.2,0.1,0.4,0.3,0.6,0.4c0.2,0.1,0.4,0.2,0.6,0.4c0.2,0.1,0.4,0.2,0.6,0.4c0.2,0.1,0.4,0.2,0.5,0.3c0.2,0.1,0.4,0.2,0.6,0.3c0.1,0.1,0.3,0.1,0.4,0.2c0.2,0.1,0.5,0.2,0.7,0.3c0,0,0,0,0,0c0.4,0.1,0.7,0.3,1.1,0.4c5.6,1.6,14.2,0.7,22.9-1.4c6.4-1.6,12.9-3.8,18.4-6.2c3.3-1.5,6.2-3,8.4-4.4c10.5-6.9,28.5-26.9,31.7-39.8c0.1-0.4,0.2-0.8,0.3-1.2c0,0,0,0,0,0c0.1-0.5,0.2-1.1,0.2-1.7c0-0.1,0-0.2,0-0.2c0.1-0.6,0.1-1.2,0.1-1.8c0-0.1,0-0.2,0-0.3C815.4,371.5,815.4,370.9,815.4,370.3z"/></g><g><path fill="#525B68" d="M654.7,361.7c31.9-12.9,76-107.1,74.3-116c-0.1-0.7-10.1-14.5-18.1-22.1c-0.4-0.2-0.8-0.3-1.2-0.4c-1.7-0.3-41.6,10.8-53.3,18.7c-18.5,12.5-43.9,52.7-49.3,74.3c-2.5,9.9,2.9,31.9,9.4,39.7c0.1,0.1,0.1,0.2,0.2,0.2C627.4,361.9,646.2,365.1,654.7,361.7z"/><path fill="#343940" d="M616.7,356.1c0.2,0.2,0.4,0.5,0.6,0.7c0,0,0.1,0.1,0.1,0.1c0.2,0.2,0.5,0.4,0.7,0.7c0,0,0.1,0.1,0.1,0.1c0.3,0.2,0.5,0.4,0.8,0.7c0,0,0.1,0.1,0.1,0.1c0.3,0.2,0.6,0.4,0.9,0.6c0,0,0.1,0,0.1,0.1c0.3,0.2,0.7,0.4,1,0.6c0,0,0.1,0,0.1,0.1c0.4,0.2,0.7,0.4,1.1,0.6c0,0,0,0,0,0c10.8,5.9,29.6,9,38.1,5.6c26.4-10.6,61-76.7,71.3-104.4c2.2-5.9,3.3-10,3-11.6c-0.1-0.6-5.9-8.7-12.2-15.8c-0.1-0.1-0.1-0.1-0.2-0.2c-0.3-0.3-0.5-0.6-0.8-0.9c-0.2-0.2-0.4-0.5-0.6-0.7c-0.1-0.1-0.3-0.3-0.4-0.4c-0.2-0.3-0.5-0.5-0.7-0.7c-0.1-0.1-0.2-0.2-0.3-0.3c-0.2-0.2-0.5-0.5-0.7-0.7c-0.1-0.1-0.2-0.2-0.3-0.3c-0.2-0.2-0.5-0.5-0.7-0.7c-0.1-0.1-0.2-0.2-0.3-0.3c-0.2-0.2-0.5-0.4-0.7-0.7c-0.1-0.1-0.2-0.2-0.3-0.3c-0.2-0.2-0.5-0.4-0.7-0.6c-0.1-0.1-0.2-0.2-0.3-0.3c-0.2-0.2-0.4-0.4-0.7-0.6c-0.1-0.1-0.2-0.2-0.3-0.2c-0.2-0.2-0.4-0.4-0.6-0.5c-0.1-0.1-0.2-0.1-0.3-0.2c-0.2-0.2-0.4-0.3-0.6-0.5c-0.1-0.1-0.2-0.1-0.3-0.2c-0.2-0.1-0.4-0.3-0.6-0.4c-0.1-0.1-0.2-0.1-0.3-0.2c-0.2-0.1-0.4-0.2-0.5-0.3c-0.1,0-0.2-0.1-0.3-0.1c-0.2-0.1-0.3-0.2-0.5-0.3c0,0,0,0-0.1,0c0,0,0,0,0,0c8,7.6,18,21.4,18.1,22.1c1.7,8.9-42.4,103.1-74.3,116C646.2,365.1,627.4,361.9,616.7,356.1C616.6,356.1,616.6,356.1,616.7,356.1C616.6,356.1,616.7,356.1,616.7,356.1z"/><path fill="none" stroke="#231F20" stroke-width="2" stroke-miterlimit="10" d="M735,250.2c-0.1-0.6-5.9-8.7-12.2-15.8c-0.1-0.1-0.1-0.1-0.2-0.2c-0.3-0.3-0.5-0.6-0.8-0.9c-0.2-0.2-0.4-0.5-0.6-0.7c-0.1-0.1-0.3-0.3-0.4-0.4c-0.2-0.3-0.5-0.5-0.7-0.7c-0.1-0.1-0.2-0.2-0.3-0.3c-0.2-0.2-0.5-0.5-0.7-0.7c-0.1-0.1-0.2-0.2-0.3-0.3c-0.2-0.2-0.5-0.5-0.7-0.7c-0.1-0.1-0.2-0.2-0.3-0.3c-0.2-0.2-0.5-0.4-0.7-0.7c-0.1-0.1-0.2-0.2-0.3-0.3c-0.2-0.2-0.5-0.4-0.7-0.6c-0.1-0.1-0.2-0.2-0.3-0.3c-0.2-0.2-0.4-0.4-0.7-0.6c-0.1-0.1-0.2-0.2-0.3-0.2c-0.2-0.2-0.4-0.4-0.6-0.5c-0.1-0.1-0.2-0.1-0.3-0.2c-0.2-0.2-0.4-0.3-0.6-0.5c-0.1-0.1-0.2-0.1-0.3-0.2c-0.2-0.1-0.4-0.3-0.6-0.4c-0.1-0.1-0.2-0.1-0.3-0.2c-0.2-0.1-0.4-0.2-0.5-0.3c-0.1,0-0.2-0.1-0.3-0.1c-0.2-0.1-0.3-0.2-0.5-0.3c0,0-0.1,0-0.1,0c-0.4-0.2-0.8-0.3-1.2-0.4c-1.7-0.3-41.6,10.8-53.3,18.7c-18.5,12.5-43.9,52.7-49.3,74.3c-2.5,9.9,2.9,31.9,9.4,39.7c0.1,0.1,0.3,0.3,0.3,0.3c0.2,0.2,0.4,0.5,0.6,0.7c0,0,0.1,0.1,0.1,0.1c0.2,0.2,0.5,0.4,0.7,0.7c0,0,0.1,0.1,0.1,0.1c0.3,0.2,0.5,0.4,0.8,0.7c0,0,0.1,0.1,0.1,0.1c0.3,0.2,0.6,0.4,0.9,0.6c0,0,0.1,0,0.1,0.1c0.3,0.2,0.7,0.4,1,0.6c0,0,0.1,0,0.1,0.1c0.4,0.2,0.7,0.4,1.1,0.6c0,0,0,0,0,0c10.8,5.9,29.6,9,38.1,5.6c26.4-10.6,61-76.7,71.3-104.4C734.2,255.9,735.3,251.7,735,250.2z"/></g><g><path fill="#525B68" d="M574.7,272c5.5-7.2-0.6-76.5-1.3-77.7c-0.5-0.8-1.1-1.5-1.8-2.2c-23.8-12.9-81.5-3.6-98.6,12.4c-7.9,7.4-6.2,32.2-5.3,43c1,12.5,3.4,39.8,12.4,51C503.9,307.8,573.4,273.7,574.7,272z"/><path fill="#343940" d="M481.8,300.3c0.1,0.1,0.2,0.2,0.3,0.3c0,0,0.1,0.1,0.1,0.1c0.7,0.6,1.4,1.1,2.1,1.5c9.9,5.4,30.4,1,49.9-5.6c22.9-7.7,44.4-18.5,46.3-19.9c0.1,0,0.1-0.1,0.1-0.1c2.7-3.6,2.6-22.6,1.7-40.9c-0.5-10.6-1.3-20.9-2-27.9c-0.5-5.2-0.9-8.6-1.1-8.9c-0.6-0.9-1.4-1.8-2.2-2.7c-0.1-0.1-0.1-0.1-0.2-0.2c-0.2-0.2-0.4-0.4-0.6-0.6c-0.1-0.1-0.2-0.2-0.3-0.3c-0.2-0.2-0.4-0.3-0.6-0.5c-0.1-0.1-0.3-0.2-0.4-0.4c-0.2-0.1-0.4-0.3-0.5-0.4c-0.2-0.1-0.4-0.3-0.6-0.4c-0.1-0.1-0.3-0.2-0.4-0.3c-0.3-0.2-0.5-0.3-0.8-0.5c-0.1-0.1-0.2-0.1-0.3-0.2c-0.2-0.1-0.5-0.3-0.7-0.4c0,0,0,0,0,0c0.7,0.7,1.2,1.4,1.8,2.2c0.8,1.1,6.8,70.5,1.3,77.7c-1.3,1.6-70.8,35.8-94.6,26.5c0,0,0,0,0,0C480.6,299.1,481.2,299.7,481.8,300.3z"/><path fill="none" stroke="#231F20" stroke-width="2" stroke-miterlimit="10" d="M582.4,235.6c-0.5-10.6-1.3-20.9-2-27.9c-0.5-5.2-0.9-8.6-1.1-8.9c-0.6-0.9-1.4-1.8-2.2-2.7c-0.1-0.1-0.1-0.1-0.2-0.2c-0.2-0.2-0.4-0.4-0.6-0.6c-0.1-0.1-0.2-0.2-0.3-0.3c-0.2-0.2-0.4-0.3-0.6-0.5c-0.1-0.1-0.3-0.2-0.4-0.4c-0.2-0.1-0.4-0.3-0.5-0.4c-0.2-0.1-0.4-0.3-0.6-0.4c-0.1-0.1-0.3-0.2-0.4-0.3c-0.3-0.2-0.5-0.3-0.8-0.5c-0.1-0.1-0.2-0.1-0.3-0.2c-0.2-0.1-0.5-0.3-0.7-0.4c0,0,0,0,0,0c-23.8-12.9-81.5-3.6-98.6,12.4c-7.9,7.4-6.2,32.2-5.3,43c1,12.5,3.4,39.8,12.4,51c0,0,0,0,0,0c0.5,0.7,1.1,1.3,1.7,1.8c0.1,0.1,0.2,0.2,0.3,0.3c0,0,0.1,0.1,0.1,0.1c0.7,0.6,1.4,1.1,2.1,1.5c9.9,5.4,30.4,1,49.9-5.6c22.9-7.7,44.4-18.5,46.3-19.9c0.1,0,0.1-0.1,0.1-0.1C583.4,272.9,583.3,253.9,582.4,235.6z"/></g><g><path fill="#525B68" d="M649.3,152.7c-2.8,2.6-5,14.3-5,14.3s-2.3,29.5,2.9,37.8c6.1,3.1,14.4,5.4,15.1,5.4c8.8-0.3,53-16,53-16s29.9-23.1,33.3-34.7c2.4-8.1,1.3-27.1-4.4-35.4C720.7,114.2,667.1,136.1,649.3,152.7z"/><path fill="#343940" d="M748.7,159.5c-3.4,11.5-33.3,34.7-33.3,34.7s-44.2,15.7-53,16c-0.7,0-9-2.3-15.1-5.4c0,0,0,0,0,0c0,0.1,0.1,0.2,0.1,0.3c2.5,3.7,12.9,7.4,18.1,8.9c1.6,0.5,2.7,0.7,2.9,0.7c2-0.1,6-1,10.9-2.3c4.2-1.1,9-2.6,13.9-4.2c14-4.4,28.3-9.5,28.3-9.5s10.6-8.2,19.9-17.2c3.9-3.8,7.6-7.7,10.1-11.3c1.6-2.2,2.8-4.3,3.3-6.1c2.6-8.8,1.2-30.3-5.9-37.2c-0.5-0.5-1-0.9-1.5-1.2c0,0,0,0,0,0c-0.4-0.3-0.8-0.5-1.3-0.7c-0.1-0.1-0.2-0.1-0.4-0.2c-0.4-0.2-0.7-0.3-1.1-0.5c-0.1,0-0.2-0.1-0.3-0.1c0,0,0,0,0,0C750,132.4,751.1,151.4,748.7,159.5z"/><path fill="none" stroke="#231F20" stroke-width="2" stroke-miterlimit="10" d="M748.8,126.8c-0.5-0.5-1-0.9-1.5-1.2c0,0,0,0,0,0c-0.4-0.3-0.8-0.5-1.3-0.7c-0.1-0.1-0.2-0.1-0.4-0.2c-0.4-0.2-0.7-0.3-1.1-0.5c-0.1,0-0.2-0.1-0.3-0.1c0,0,0,0,0,0c-23.5-9.9-77.2,12-94.9,28.6c-2.8,2.6-5,14.3-5,14.3s-2.3,29.5,2.9,37.8c0,0,0,0,0,0c0,0.1,0.1,0.2,0.1,0.3c2.5,3.7,12.9,7.4,18.1,8.9c1.6,0.5,2.7,0.7,2.9,0.7c2-0.1,6-1,10.9-2.3c4.2-1.1,9-2.6,13.9-4.2c14-4.4,28.3-9.5,28.3-9.5s10.6-8.2,19.9-17.2c3.9-3.8,7.6-7.7,10.1-11.3c1.6-2.2,2.8-4.3,3.3-6.1C757.3,155.2,755.8,133.7,748.8,126.8z"/></g><g><path fill="#525B68" d="M723.2,47.3c0,1.5-1.6,32.6-8,40.7c-34.6,43.6-196.9,84.3-217,88.6c-8.6-11.5-28-39.1-28-39.1s-51.5-106-35-137.3c0-0.1,0.1-0.1,0.1-0.2h262.9c0.8,0.4,1.7,0.7,2.5,1.1C704.7,7.4,723.2,37.8,723.2,47.3z"/><path fill="#343940" d="M715.2,88c-34.6,43.6-196.9,84.3-217,88.6c1.1,1.5,2,2.6,2.7,3.5c0,0,0,0,0.1,0.1c0.1,0.1,0.2,0.3,0.3,0.4c0.1,0.1,0.2,0.2,0.3,0.3c0,0,0.1,0.1,0.1,0.1c0.2,0.2,0.4,0.4,0.4,0.5c0,0,0,0,0.1,0c0,0,0,0,0,0c1.3,0.3,176.7-41.4,217.2-86.8c0.6-0.7,1.3-1.4,1.8-2.2c6.4-8.1,8-39.2,8-40.7c0-4.2-3.5-12.2-7.8-20.6c-4.2-8.1-9.1-16.5-12.3-21.6c-1.8-2.9-3-4.9-3.3-5.1c-0.1-0.1-0.2-0.3-0.4-0.4c0,0,0,0,0,0c-0.1-0.1-0.3-0.3-0.5-0.4c0,0,0,0,0,0c-0.9-0.7-2.1-1.4-3.4-2.1c-0.2-0.1-0.3-0.2-0.5-0.3c0,0,0,0,0,0c-0.1-0.1-0.3-0.1-0.4-0.2c0,0,0,0,0,0c4.1,6.3,22.6,36.6,22.6,46.2C723.2,48.8,721.6,79.9,715.2,88z"/><path fill="none" stroke="#000000" stroke-width="2" stroke-linecap="round" stroke-miterlimit="10" d="M697.8,0c0,0,6.3,2.5,8,4c4.1,3.5,6.4,11.2,10.6,18.3c5.9,10.2,13,20.9,12.7,28.5c-0.4,10.1-1.8,32.2-6.5,40.1c-9.2,15.6-34.5,28.2-63.5,40.8c-66.1,28.8-156.7,49.8-156.7,49.8s-26.8-31.9-32.7-44.4c-7.4-15.7-27.8-65.2-34.5-95.1C428.2,11.1,435.3,0,435.3,0"/></g><g><path fill="#525B68" d="M775.8,1.7C775.4,3,740.2,32.3,735.5,32c-0.4,0-2.1-0.9-4-2.1c-2.1-1.9-3.7-3.8-4-5.4c-1-5.8,6.1-17.7,11.3-24.5h34.6c0.9,0.3,1.8,0.7,2.5,1C775.9,1.3,775.9,1.5,775.8,1.7z"/><path fill="#343940" d="M775.8,1.7C775.4,3,740.2,32.3,735.5,32c-0.4,0-2.1-0.9-4-2.1c0,0,0,0,0,0c0.1,0.1,0.2,0.1,0.2,0.2c0.1,0.1,0.2,0.2,0.3,0.3c0.1,0.1,0.3,0.2,0.4,0.3c0.1,0.1,0.1,0.1,0.2,0.2c2.5,2.1,5.3,3.9,7.1,4.9c0,0,0,0,0,0c0.4,0.2,0.7,0.3,0.9,0.5c0.1,0,0.1,0.1,0.2,0.1c0.1,0,0.1,0,0.1,0.1c0.1,0,0.1,0,0.2,0.1c0,0,0.1,0,0.1,0c0.1,0,0.1,0,0.2,0c0,0,0,0,0,0c3.1,0.2,19.6-12.6,30.5-21.6c5.6-4.6,9.7-8.3,9.8-8.7c0-0.1,0.1-0.3,0.1-0.5c0,0,0,0,0-0.1c0-0.2,0-0.3-0.1-0.5c0,0,0,0,0,0c-0.1-0.2-0.2-0.3-0.3-0.5c0,0,0,0,0,0c-0.1-0.2-0.3-0.3-0.4-0.5c0,0,0,0-0.1-0.1c-0.2-0.2-0.3-0.3-0.5-0.5c0,0,0,0-0.1-0.1c-0.2-0.1-0.4-0.3-0.6-0.4c0,0-0.1-0.1-0.1-0.1c-0.2-0.1-0.4-0.3-0.7-0.4c-0.1-0.1-0.2-0.1-0.3-0.2c-0.2-0.1-0.3-0.2-0.5-0.3c-0.2-0.1-0.5-0.3-0.7-0.4c-0.1,0-0.2-0.1-0.3-0.1c-0.4-0.2-0.8-0.4-1.2-0.6c0,0-0.1,0-0.1,0c0,0,0,0,0,0C775.9,1.3,775.9,1.5,775.8,1.7z"/><path fill="none" stroke="#000000" stroke-width="2" stroke-linecap="round" stroke-miterlimit="10" d="M738.4,0c0,0-12.2,17.9-10.9,24.4c1,4.8,13.3,12.5,14.2,12.2c12.3-4.2,39.7-28.8,40.1-30.5c0.8-3.5-8.5-6.1-8.5-6.1"/></g><g><path fill="#525B68" d="M629.6,217.8c0.4-1.6-6.7-14.9-13.6-22.3c-0.2-0.1-0.4-0.1-0.6-0.2c-4.5-1.1-14.7,0.6-16.8,7.7c-1.4,4.7,2.1,31.4,6.7,43.5C611.4,241.7,627.6,225.9,629.6,217.8z"/><path fill="#343940" d="M606,247.8c0.1,0.2,0.2,0.5,0.3,0.7c0,0.1,0,0.1,0.1,0.2c0.1,0.3,0.3,0.6,0.4,0.8c0,0,0,0.1,0,0.1c0.2,0.3,0.3,0.5,0.5,0.8c0,0,0,0,0,0c0.3,0.5,0.6,0.9,1,1.2c0,0,0,0,0,0c0.2,0.1,0.3,0.3,0.5,0.4c0,0,0,0,0.1,0c0.1,0.1,0.3,0.2,0.4,0.2c0,0,0,0,0,0c0.3,0.1,2.2-1.2,4.7-3.5c7.1-6.3,19.9-19.4,21.7-26.5c0.2-0.9-1.9-5.6-5.1-10.8c0,0,0,0,0,0c-0.2-0.3-0.4-0.7-0.6-1c0,0-0.1-0.1-0.1-0.1c-0.2-0.3-0.4-0.6-0.6-1c0-0.1-0.1-0.1-0.1-0.2c-0.2-0.3-0.4-0.6-0.6-0.9c-0.1-0.1-0.1-0.2-0.2-0.3c-0.2-0.3-0.4-0.6-0.6-0.8c-0.1-0.1-0.2-0.2-0.2-0.3c-0.2-0.3-0.4-0.5-0.5-0.8c-0.1-0.1-0.2-0.3-0.3-0.4c-0.2-0.2-0.4-0.5-0.5-0.7c-0.1-0.1-0.2-0.3-0.3-0.4c-0.2-0.2-0.3-0.4-0.5-0.7c-0.1-0.1-0.2-0.3-0.3-0.4c-0.2-0.2-0.3-0.4-0.5-0.6c-0.1-0.2-0.2-0.3-0.4-0.5c-0.2-0.2-0.3-0.4-0.5-0.6c-0.1-0.2-0.3-0.3-0.4-0.5c-0.2-0.2-0.3-0.3-0.5-0.5c-0.1-0.2-0.3-0.3-0.4-0.5c-0.1-0.2-0.3-0.3-0.4-0.5c-0.1-0.1-0.3-0.3-0.4-0.4c-0.1-0.1-0.3-0.3-0.4-0.4c-0.1-0.1-0.3-0.3-0.4-0.4c-0.1-0.1-0.3-0.3-0.4-0.4c-0.1-0.1-0.3-0.2-0.4-0.4c-0.1-0.1-0.3-0.2-0.4-0.4c-0.1-0.1-0.3-0.2-0.4-0.3c-0.1-0.1-0.3-0.2-0.4-0.3c-0.1-0.1-0.3-0.2-0.4-0.3c-0.1-0.1-0.3-0.2-0.4-0.3c-0.1-0.1-0.2-0.1-0.4-0.2c-0.2-0.1-0.3-0.2-0.4-0.2c-0.1-0.1-0.2-0.1-0.3-0.2c-0.2-0.1-0.3-0.1-0.5-0.2c0,0-0.1,0-0.1,0c0,0,0,0,0,0c7,7.4,14,20.7,13.6,22.3c-2,8.1-18.2,24-24.2,28.7c0,0,0,0,0,0C605.6,246.9,605.8,247.4,606,247.8z"/><path fill="none" stroke="#231F20" stroke-width="2" stroke-miterlimit="10" d="M630.5,211.5C630.5,211.5,630.5,211.5,630.5,211.5c-0.2-0.4-0.4-0.7-0.7-1.1c0,0-0.1-0.1-0.1-0.1c-0.2-0.3-0.4-0.6-0.6-1c0-0.1-0.1-0.1-0.1-0.2c-0.2-0.3-0.4-0.6-0.6-0.9c-0.1-0.1-0.1-0.2-0.2-0.3c-0.2-0.3-0.4-0.6-0.6-0.8c-0.1-0.1-0.2-0.2-0.2-0.3c-0.2-0.3-0.4-0.5-0.5-0.8c-0.1-0.1-0.2-0.3-0.3-0.4c-0.2-0.2-0.4-0.5-0.5-0.7c-0.1-0.1-0.2-0.3-0.3-0.4c-0.2-0.2-0.3-0.4-0.5-0.7c-0.1-0.1-0.2-0.3-0.3-0.4c-0.2-0.2-0.3-0.4-0.5-0.6c-0.1-0.2-0.2-0.3-0.4-0.5c-0.2-0.2-0.3-0.4-0.5-0.6c-0.1-0.2-0.3-0.3-0.4-0.5c-0.2-0.2-0.3-0.3-0.5-0.5c-0.1-0.2-0.3-0.3-0.4-0.5c-0.1-0.2-0.3-0.3-0.4-0.5c-0.1-0.1-0.3-0.3-0.4-0.4c-0.1-0.1-0.3-0.3-0.4-0.4c-0.1-0.1-0.3-0.3-0.4-0.4c-0.1-0.1-0.3-0.3-0.4-0.4c-0.1-0.1-0.3-0.2-0.4-0.4c-0.1-0.1-0.3-0.2-0.4-0.4c-0.1-0.1-0.3-0.2-0.4-0.3c-0.1-0.1-0.3-0.2-0.4-0.3c-0.1-0.1-0.3-0.2-0.4-0.3c-0.1-0.1-0.3-0.2-0.4-0.3c-0.1-0.1-0.2-0.1-0.4-0.2c-0.2-0.1-0.3-0.2-0.4-0.2c-0.1-0.1-0.2-0.1-0.3-0.2c-0.2-0.1-0.3-0.1-0.5-0.2c0,0-0.1,0-0.1,0c-0.2-0.1-0.4-0.1-0.6-0.2c-4.5-1.1-14.7,0.6-16.8,7.7c-1.4,4.7,2.1,31.4,6.7,43.5c0,0,0,0,0,0c0.2,0.5,0.4,1,0.6,1.4c0.1,0.2,0.2,0.5,0.3,0.7c0,0.1,0,0.1,0.1,0.2c0.1,0.3,0.3,0.6,0.4,0.8c0,0,0,0.1,0,0.1c0.2,0.3,0.3,0.5,0.5,0.8c0,0,0,0,0,0c0.3,0.5,0.6,0.9,1,1.2c0,0,0,0,0,0c0.2,0.1,0.3,0.3,0.5,0.4c0,0,0,0,0.1,0c0.1,0.1,0.3,0.2,0.4,0.2c0,0,0,0,0,0c0.3,0.1,2.2-1.2,4.7-3.5c7.1-6.3,19.9-19.4,21.7-26.5C635.9,221.4,633.7,216.7,630.5,211.5z"/></g><g><path fill="#525B68" d="M784.7,523.3c10.6-2.9,28.9-18.5,33.5-28.5c4.9-10.6,0.6-37-7.8-47.7c-9.6-3.4-28.3,0.6-36.7,3.2c-21.4,6.5-77.1,28.9-73.5,51c0.6,3.6,2.7,6.9,5.8,9.9C726.4,523.7,767.4,528,784.7,523.3z"/><path fill="#343940" d="M779.7,529.5C779.7,529.5,779.8,529.5,779.7,529.5c0.9-0.1,1.7-0.1,2.5-0.2c0,0,0,0,0,0c1.5-0.1,3-0.3,4.4-0.6c0.1,0,0.1,0,0.2,0c0.6-0.1,1.3-0.2,1.9-0.4c0.1,0,0.2,0,0.2-0.1c0.6-0.1,1.2-0.3,1.7-0.4c2.6-0.7,5.7-2.2,9-4.2c9.9-6.1,21.1-16.8,24.5-24.3c5.4-11.7-0.3-42.5-10.5-50.5c-0.2-0.2-0.5-0.4-0.7-0.5c-0.1-0.1-0.2-0.1-0.4-0.2c-0.2-0.1-0.3-0.2-0.5-0.3c-0.1-0.1-0.3-0.1-0.4-0.2c-0.2-0.1-0.4-0.2-0.5-0.2c-0.1,0-0.2-0.1-0.3-0.1c-0.2-0.1-0.3-0.1-0.5-0.2c0,0,0,0,0,0c8.4,10.7,12.6,37.1,7.8,47.7c-4.6,10-22.9,25.6-33.5,28.5c-17.3,4.7-58.3,0.4-78.7-12.1c0,0,0,0,0,0c0,0,0.1,0.1,0.1,0.1c0.5,0.4,1,0.9,1.5,1.3c0,0,0.1,0.1,0.1,0.1c0.6,0.4,1.1,0.9,1.7,1.3c0,0,0.1,0.1,0.2,0.1c1.2,0.9,2.6,1.7,4,2.5c0,0,0.1,0,0.1,0.1c0.7,0.4,1.4,0.8,2.2,1.2c0.1,0,0.1,0.1,0.2,0.1c1.5,0.8,3.2,1.5,4.8,2.2c0,0,0,0,0.1,0c0.8,0.3,1.7,0.7,2.6,1c0.1,0,0.1,0,0.2,0.1c2.7,1,5.5,1.9,8.4,2.7c0,0,0.1,0,0.1,0C747.9,528.5,766.3,530.4,779.7,529.5z"/><path fill="none" stroke="#231F20" stroke-width="2" stroke-miterlimit="10" d="M813.7,448.8c-0.2-0.2-0.5-0.4-0.7-0.5c-0.1-0.1-0.2-0.1-0.4-0.2c-0.2-0.1-0.3-0.2-0.5-0.3c-0.1-0.1-0.3-0.1-0.4-0.2c-0.2-0.1-1.3-0.5-1.3-0.5c-9.6-3.4-28.3,0.6-36.7,3.2c-21.4,6.5-77.1,28.9-73.5,51c0.6,3.6,5.8,9.9,5.8,9.9c0,0,1.1,1,1.6,1.4c0,0,0.1,0.1,0.1,0.1c0.6,0.4,1.1,0.9,1.7,1.3c0,0,0.1,0.1,0.2,0.1c1.2,0.9,2.6,1.7,4,2.5c0,0,0.1,0,0.1,0.1c0.7,0.4,1.4,0.8,2.2,1.2c0.1,0,0.1,0.1,0.2,0.1c1.5,0.8,3.2,1.5,4.8,2.2c0,0,0,0,0.1,0c0.8,0.3,1.7,0.7,2.6,1c0.1,0,0.1,0,0.2,0.1c2.7,1,5.5,1.9,8.4,2.7c0,0,0.1,0,0.1,0c15.7,4.4,34.1,6.3,47.5,5.4c0,0,0,0,0,0c0.8-0.1,1.6-0.1,2.4-0.2c0,0,0,0,0,0c1.5-0.1,3-0.3,4.4-0.6c0.1,0,0.1,0,0.2,0c0.6-0.1,1.3-0.2,1.9-0.4c0.1,0,0.2,0,0.2-0.1c0.6-0.1,1.2-0.3,1.7-0.4c2.6-0.7,5.7-2.2,9-4.2c9.9-6.1,21.1-16.8,24.5-24.3C829.5,487.6,823.8,456.8,813.7,448.8z"/></g></g></g></svg>