<svg version="1.1" id="foregroundBrachFour" xmlns="http://www.w3.org/2000/svg" xmlns:xlink="http://www.w3.org/1999/xlink" x="0px" y="0px" viewBox="0 0 158.3 99.9" enable-background="new 0 0 158.3 99.9" xml:space="preserve"><g id="branchFour"><path fill="#155514" stroke="#231F20" stroke-width="2" stroke-miterlimit="10" d="M80.1,85.9c0,0-38.7-51.4-51.2-40.8c-8.2,7,21,37.4,21,37.4S-0.1,65.5,1,77.3c1.4,14.3,70.6,17.9,70.6,17.9L80.1,85.9z"/><path fill="#0E300E" d="M74.9,89.4c0,0-7.6-5.5-9.8-7.8c-5.2-5.3-20-22.2-20-22.2S58,77.1,62.6,82.7c2,2.5,9.1,9.4,9.1,9.4L74.9,89.4z"/><path fill="#0E300E" d="M66,92.7c0,0-13-3.2-17.4-4.4c-6.4-1.9-25.8-8.1-25.8-8.1s18.8,7.3,25.2,9.5c3.9,1.3,16.1,4.5,16.1,4.5L66,92.7z"/><path fill="#612D20" stroke="#231D1E" stroke-width="2" stroke-linecap="round" stroke-linejoin="round" stroke-miterlimit="10" d="M157.1,1.1c0,0-18.6-6.1-60.4,63.4c-19,31.6-62.5,32.2-62.5,32.2s48,7.8,66.6-6.4c8.2-6.2,21-20.8,33.3-29.7c14.8-10.6,23.3-14.9,23.3-14.9L157.1,1.1z"/></g></svg>