<svg version="1.1" id="foregroundBranchOne" xmlns="http://www.w3.org/2000/svg" xmlns:xlink="http://www.w3.org/1999/xlink" x="0px" y="0px" viewBox="0 0 211.6 160.8" enable-background="new 0 0 211.6 160.8" xml:space="preserve"><g id="branchOne"><g><path fill="#FC0000" stroke="#231F20" stroke-width="2" stroke-miterlimit="10" d="M177.4,113.1c-7,4.7-25.6,12.6-2.9,33.8c2.2,2.1,6.4,5.2,8.9,5.3c2.8,0.1,7.3-1.2,11.2-2.8c1.3,0.1,2.8-0.3,4.2-1.1c1.4-0.8,2.5-1.9,3.2-3c3.2-2.5,7.3-6.6,8.2-9.5c1.1-3.4-2.1-10.6-2.9-13.9C200.2,96,183.9,108.7,177.4,113.1z"/><path fill="#227C19" stroke="#231F20" stroke-width="2" stroke-miterlimit="10" d="M178.3,114.9c-0.1-0.2-4.5-18.8,6.6-17.3c5.6,0.7-5,17.5-5,17.5L178.3,114.9z"/><polygon fill="#0F300C" points="178.8,114.3 181.1,100.9 179.6,114.2 "/><path fill="#7B4242" stroke="#231F20" stroke-width="2" stroke-miterlimit="10" d="M179.5,116c2.7-1.9-0.9-5.1-2.4-6.8c-1-1.2-3.7-4.4-5.3-3.2c-1.6,1.2,0.9,4.5,1.7,5.7C174.6,113.2,177.4,117.5,179.5,116z"/><ellipse transform="matrix(0.8746 -0.4849 0.4849 0.8746 -34.6018 102.6133)" fill="#FC0000" cx="181.1" cy="118.2" rx="5.9" ry="3.9"/><path fill="none" stroke="#231F20" stroke-width="2" stroke-linecap="round" stroke-miterlimit="10" d="M174.1,120.6c0,0,2.6-7.4,12-8.3"/></g><path fill="#155514" stroke="#231F20" stroke-width="2" stroke-miterlimit="10" d="M60.9,74.9c0,0,17-1.9,31.3-7.6c16.4-6.6,30.5-16.8,33.9-8.5c3.4,8.4-13.2,20.6-30.7,25.2c-15,3.9-31.1,0.6-31.1,0.6L60.9,74.9z"/><path fill="#155514" stroke="#231F20" stroke-width="2" stroke-miterlimit="10" d="M159.1,104.4c0,0,18.1-57.1,32-51.2c7.4,3.1-7.7,31.1-7.7,31.1s20.2-14,23.4-8.6c6.1,10.4-36.8,31.1-36.8,31.1L159.1,104.4z"/><path fill="#155514" stroke="#231F20" stroke-width="2" stroke-miterlimit="10" d="M96.8,120.3c1.1,0.5,49.4,26.1,41.2,37.4c-9.4,12.8-51.6-35.3-51.6-35.3L96.8,120.3z"/><path fill="#0E300E" d="M96.5,117.4c0,0,5.4,7.7,7.5,9.9c5.2,5.4,21.8,20.5,21.8,20.5s-17.4-13.2-23-17.9c-2.5-2.1-9.2-9.3-9.2-9.3L96.5,117.4z"/><path fill="#0E300E" d="M65.4,80.6c0,0,9.3-0.9,12.3-1.7c7.2-1.9,28.6-8.9,28.6-8.9s-20.1,8.7-26.9,11.2c-3,1.1-12.6,3.4-12.6,3.4L65.4,80.6z"/><path fill="#0E300E" d="M161.6,107.3c0,0,5.8-7.3,7.4-10.1c3.7-6.5,13.4-26.7,13.4-26.7s-7.7,20.5-10.6,27.2c-1.3,3-6.3,11.4-6.3,11.4L161.6,107.3z"/><path fill="#0E300E" d="M155.9,107.6c0,0,8.7-3.4,11.4-4.9c6.4-3.7,25.1-16.2,25.1-16.2s-17,13.7-22.9,18c-2.6,1.9-11.2,6.7-11.2,6.7L155.9,107.6z"/><path fill="#612D20" stroke="#231D1E" stroke-width="2" stroke-linecap="round" stroke-linejoin="round" stroke-miterlimit="10" d="M1,1c0,0,18.3,4.3,45.7,32.4C60.8,48,62.5,77.8,79.1,89.4c40.5,28.1,111,6,111,6s-30.2,42.9-114.8,27.7C49.6,118.5,35.9,86,24.5,74.4c-14-14.2-22.6-7.3-22.6-7.3L1,1z"/></g></svg>