<svg version="1.1" id="foregroundBranchThree" xmlns="http://www.w3.org/2000/svg" xmlns:xlink="http://www.w3.org/1999/xlink" x="0px" y="0px" viewBox="0 0 193.2 128.5" enable-background="new 0 0 193.2 128.5" xml:space="preserve"><g id="branchThree"><path fill="#155514" stroke="#231F20" stroke-width="2" stroke-miterlimit="10" d="M53.4,73.4c-0.4-0.7-39.3-54.2-47.8-41.2C-9.9,55.7,47.6,76.3,47.6,76.3L53.4,73.4z"/><path fill="#0E300E" d="M54,74.4c0,0-8.2-4.6-10.6-6.5c-5.8-4.6-22.6-19.6-22.6-19.6s14.9,16,20.2,21.1c2.3,2.3,10.1,8.2,10.1,8.2L54,74.4z"/><path fill="#155514" stroke="#231F20" stroke-width="2" stroke-miterlimit="10" d="M129.2,56.9c0,0-6.6,16-16.7,26.4c-10.8,11.1-33.6,11.2-20.6,23.8c4.9,4.8,19.3-4.5,27.8-15.3c8-10.3,12-24.3,12-24.3L129.2,56.9z"/><path fill="#0E300E" d="M129.5,65.7c0,0-4.3,8.3-6.1,10.9c-4.4,6-18.8,23.3-18.8,23.3s15.4-15.5,20.3-21c2.2-2.4,7.8-10.4,7.8-10.4L129.5,65.7z"/><g><path fill="#FC0000" stroke="#231F20" stroke-width="2" stroke-miterlimit="10" d="M32.2,87.2C24.4,84,7.5,73.1,2.6,103.8c-0.5,3-0.7,8.2,0.6,10.4c1.5,2.4,5.1,5.4,8.6,7.7c0.7,1.1,1.8,2.1,3.3,2.9c1.5,0.7,3,1,4.2,0.9c3.9,1.3,9.5,2.3,12.5,1.5c3.4-1,7.6-7.7,9.8-10.2C59.1,96.5,39.5,90.1,32.2,87.2z"/><path fill="#227C19" stroke="#231F20" stroke-width="2" stroke-miterlimit="10" d="M31.2,88.9c0.1-0.2,13-14.3,18-4.3c2.5,5.1-17.3,5.7-17.3,5.7L31.2,88.9z"/><polygon fill="#0F300C" points="32,89 44.4,83.4 32.5,89.6 "/><path fill="#7B4242" stroke="#231F20" stroke-width="2" stroke-miterlimit="10" d="M31,90.5c3.1,1.2,3.7-3.6,4.3-5.8c0.4-1.5,1.6-5.5-0.4-6.2c-1.9-0.6-3.2,3.2-3.7,4.6C30.6,84.9,28.5,89.6,31,90.5z"/><ellipse transform="matrix(0.8919 0.4522 -0.4522 0.8919 45.3193 -3.5291)" fill="#FC0000" cx="30" cy="93" rx="5.9" ry="3.9"/><path fill="none" stroke="#231F20" stroke-width="2" stroke-linecap="round" stroke-miterlimit="10" d="M24.1,88.7c0,0,7.6-2,13.6,5.3"/></g><path fill="#612D20" stroke="#231D1E" stroke-width="2" stroke-linecap="round" stroke-linejoin="round" stroke-miterlimit="10" d="M191.8,1c0,0-56.7,36.7-91.8,54.6C42.4,85.1,1,65.9,1,65.9s20.1,30.7,99.5,14.5c24.7-5.1,91.8-33.3,91.8-33.3L191.8,1z"/></g></svg>