<svg version="1.1" id="foregroundBranchTwo" xmlns="http://www.w3.org/2000/svg" xmlns:xlink="http://www.w3.org/1999/xlink" x="0px" y="0px" viewBox="0 0 159.4 124.1" enable-background="new 0 0 159.4 124.1" xml:space="preserve"><g id="branchTwo"><path fill="#155514" stroke="#231F20" stroke-width="2" stroke-miterlimit="10" d="M100.8,75.2c0,0,13.4,11,27.2,15.4c14.8,4.7,34.9-6.1,29.5,11.2c-2.1,6.6-19.1,5.2-31.7-0.3c-11.9-5.3-22.1-15.7-22.1-15.7L100.8,75.2z"/><path fill="#0E300E" d="M104.7,83.1c0,0,7.7,5.3,10.5,6.7c6.7,3.2,27.6,11.6,27.6,11.6S121.9,95,115,92.5c-3-1.1-11.8-5.5-11.8-5.5L104.7,83.1z"/><path fill="#155514" stroke="#231F20" stroke-width="2" stroke-miterlimit="10" d="M83.8,70c0,1.2,3.2,55.8,16.9,53c15.6-3.2-10.7-61.6-10.7-61.6L83.8,70z"/><path fill="#0E300E" d="M81.2,68.5c0,0,4.7,8.1,5.9,11c2.7,6.9,9.5,28.4,9.5,28.4s-4.8-21.4-6.7-28.4c-0.9-3.1-4.6-12.2-4.6-12.2L81.2,68.5z"/><path fill="#612D20" stroke="#231D1E" stroke-width="2" stroke-linecap="round" stroke-linejoin="round" stroke-miterlimit="10" d="M1,1c0,0,50.5,24.8,64.9,36.7c47.4,39.3,54.6,70.4,54.6,70.4S89.4,65.5,52.7,53.9C39.5,49.8,1,48.4,1,48.4V1z"/></g></svg>