<svg version="1.1" id="timerGraphics" xmlns="http://www.w3.org/2000/svg" xmlns:xlink="http://www.w3.org/1999/xlink" x="0px" y="0px" viewBox="0 0 234.5 93.1" enable-background="new 0 0 234.5 93.1" xml:space="preserve"><g id="darkAppleSign"><rect x="38.9" y="26.1" fill="#594420" stroke="#231F20" stroke-width="2" stroke-miterlimit="10" width="188.2" height="55"/><path fill="#AD1616" stroke="#231F20" stroke-width="2" stroke-miterlimit="10" d="M38.1,20.7C23.5,22-11.1,18.3,5.4,69.5c1.6,5,5.3,13.1,9.1,15.5c4.1,2.6,12.1,4.4,19.3,5.2c1.9,1.2,4.5,1.9,7.3,1.9c2.8,0,5.4-0.7,7.3-1.8c6.9-1.1,16.5-3.8,20.4-7.4c4.5-4.2,5.8-17.8,7.2-23.4C86.8,14,51.6,19.6,38.1,20.7z"/><path fill="#227C19" stroke="#231F20" stroke-width="2" stroke-miterlimit="10" d="M37.8,24.2c0-0.4,8.9-32.2,24.5-20.7c7.9,5.9-22.2,22.3-22.2,22.3L37.8,24.2z"/><polygon fill="#0F300C" points="39.1,23.7 53.8,5.4 40.4,24.2 "/><path fill="#7B4242" stroke="#231F20" stroke-width="2" stroke-miterlimit="10" d="M38.7,26.9c5.7-0.6,2.9-8.5,2.2-12.3C40.4,12,39,4.8,35.5,5.4c-3.4,0.5-2.4,7.5-2.2,10C33.7,18.6,34.3,27.3,38.7,26.9z"/><ellipse fill="#AD1616" cx="39.3" cy="31.5" rx="10.2" ry="6.7"/><path fill="none" stroke="#231F20" stroke-width="2" stroke-linecap="round" stroke-miterlimit="10" d="M28,26.2c0,0,8-4.3,22,0.5"/><path fill="#FFFFFF" d="M10.1,29.6c-3.2,3.3-3.9,8.3-3,9.2c0.9,0.9,2.7-2.8,5.8-6.1s6.5-4.9,5.6-5.8S13.3,26.3,10.1,29.6z"/><ellipse fill="#FFFFFF" cx="5.1" cy="42.2" rx="1.7" ry="1.9"/></g></svg>