<svg version="1.1" id="uniAnimatedFrameTwo" xmlns="http://www.w3.org/2000/svg" xmlns:xlink="http://www.w3.org/1999/xlink" x="0px" y="0px" viewBox="0 0 157 197.6" enable-background="new 0 0 157 197.6" xml:space="preserve"><g id="frame2"><g id="uniLegsTwo"><path fill="#606060" d="M81.5,162.8c-1.6,5.1-4.2,11.3-5.6,16.3c-1.1,3.7-2.5,7.8-3.4,11.6c-0.3,1.2-1.2,2-2.4,1.8c-5.9-1.1-12.6-2.4-18-5.1c-1.4-0.7-4.2-2.2-3.7-4.2c0.5-1.8,3.6-2.4,5.1-2.5c3.5-0.2,7.3,0.2,10.9,1.9c1.4,1.1-0.4,1.4-0.1,0.2c0.8-2.8,1.9-5.3,2.6-8.1c0.9-3.5,2.2-6.9,3.1-10.4c0.3-1.2,0.8-2.8,2.1-2.5C74.2,162.1,79.1,162.4,81.5,162.8z"/><path fill="#606060" d="M98.9,161.4c2.7-0.7,7.6-2.3,10-2.8c0.5-0.1,1.8,2,2.1,2.4c5.2,6.2,9.5,10.9,14.9,17.4c0.1-0.3,0.7,0.7,0.6,0.8c-4.4,5.1-9.2,10.7-15.2,13.9c-1,0.5-4.1,0.4-5.3,0.5c0.2-1.3-0.7-3.6-0.2-4.6c1.7-3.4,4.1-6.8,7.9-8c1.7-0.6-0.1-1.4-0.9-2.2c-1.9-2.2-3.7-3.7-5.6-5.9c-2-3.3-4.9-4.9-7.4-9.5C99.6,162.9,99.3,162,98.9,161.4z"/><path d="M111.7,159.1c0.4,0.6,0.8,1.2,1.2,1.7c4.9,5.8,9.8,11.6,14.8,17.3c1,1.2,0.6,2.1-0.1,2.9c-2.2,2.4-4.3,4.8-6.7,6.9c-2.6,2.3-5.4,4.3-8.3,6.3c-1,0.7-2.3,1.1-3.6,1.3c-3.6,0.7-5.8-1.9-4.5-5.3c1.4-3.8,3.7-6.9,7.2-9c0.5-0.3,1-0.6,1.6-1c-1.3-1.3-2.5-2.6-3.6-3.8c-3.7-4.3-7.4-8.6-11.1-12.8c-0.4-0.5-1.3-0.8-1.9-0.8c-4.4,0.3-8.8,0.7-13.2,1.2c-0.5,0.1-1.3,0.6-1.4,1.1c-2.3,6.5-4.5,13.1-6.6,19.7c-0.8,2.5-1.4,5.1-1.9,7.7c-0.3,1.3-0.9,1.7-2.1,1.7c-0.7,0-1.4,0.1-2.1-0.1c-5.1-1.3-10.2-2.6-15.2-4.1c-1.7-0.5-3.3-1.7-4.8-2.8c-1.5-1.1-2.4-2.6-1.9-4.5c0.5-1.9,2-2.6,3.7-2.9c4.4-0.7,8.6-0.4,12.5,2.1c1.7-6.6,3.4-13,5.2-19.6C68.1,161.9,104.6,151.8,111.7,159.1z M79.4,163.8c-2.4-0.4-4.5-0.6-6.5-1c-1.3-0.3-1.8,0.1-2.2,1.4c-0.9,3.5-1.9,7.1-2.9,10.6c-0.7,2.9-1.4,5.7-2.1,8.6c-0.3,1.2-1,2.1-2.3,1c-2.8-2.3-6.1-2.9-9.6-2.6c-1.5,0.1-3.7-0.3-4.2,1.6c-0.5,2,1.6,2.7,3.1,3.4c5.4,2.7,11.3,3.8,17.1,4.9c1.2,0.2,1.6-0.3,1.9-1.5c0.9-3.8,1.8-7.6,2.9-11.4C76.1,173.8,77.8,168.9,79.4,163.8z M100.6,161.9c0.4,0.7,0.7,1.1,1,1.5c2.7,3.2,5.5,6.3,8.2,9.4c1.9,2.2,4,4.2,5.9,6.4c0.8,0.9,1.4,1.9-0.4,2.5c-3.8,1.2-5.9,4.2-8,7.4c-3.2,4.9,2.1,3.9,3.1,3.3c6-3.2,10.7-7.8,15.1-12.9c0.1-0.1,0-0.2,0,0.1c-5.4-6.5-10.6-12.8-15.8-19c-0.3-0.4-1.1-0.7-1.6-0.6C105.7,160.6,103.3,161.2,100.6,161.9z M106,46.6 M103.3,59.8"/></g><g id="uniArmTwo"><path fill="#9A27D6" d="M16.1,60.3c2.5-6.9,6.7-13.4,12.5-17.9c0.9-0.7,3.2-1.2,4.2-0.3c10.2,9.8,20.4,19.3,30.6,29c1,0.9,2.6,3.6,3.3,4.7c3,4.6,0.9,11.2-3.5,14.4c-2.7,1.9-6.5,1.1-9.1-0.4c-8.9-5.2-17.3-9.7-26-15.1c-3.4-2.1-6.8-5.1-10.2-7.1c-1.8-1.1-2.7-3.1-2-4.9C16.2,62.1,15.9,60.9,16.1,60.3z"/><path fill="#E7F1F3" d="M7,50.9c1.7-0.8,2.9-1.6,4.4-2.3c-0.1-0.2,0.9-1.2,0.8-1.4c0.5,0.1,1.4,0.7,1.8,0.7c2.8,0.2,4-1.3,3.3-4c-0.4-1.6-2.1-3-0.7-4.8c-0.5-0.3,0-0.6-0.4-0.4c-1.3,0.5-2.9,1.4-4.2,2.1c-0.6,0.3-2.1,0.4-2.8,0.7c0.1-0.7-0.1-3,0.2-3.6c2.7-5.2,7.7-6.7,12.5-3.4c2,1.4,4,3.9,5.7,5.8c0.2,0.3-0.3,2.5-0.6,3c-2.5,3.1-5.1,7.1-7.5,10.3c-0.9,1.2-2.6,0.8-3.8,0c-1.6-1.1-2.6-1.4-4.6-0.2C9.9,54.1,7.3,52.4,7,50.9z"/><path fill="#727272" d="M8.2,17.7c0.3,0.5,0.8,1.4,1,1.8c1.3,3.8,2.8,8.4,4.1,12.2c0.7,2-2.2,2.9-3.2,3.4c-1.1,0.6-2.4-1.3-2.7-2.5C6.3,29,5.1,25,4.1,21.2c-0.2-0.6-0.1-2,0.2-2.2C5,18.4,7.2,18.1,8.2,17.7z"/><path fill="#727272" d="M15.3,39c0.7,2,1.9,4,2.3,5.5c0.4,1.5-1.2,3.6-3.8,3.7c-1.8,0.4-3.9-4-2.8-5.7C11.7,41.3,14,40.6,15.3,39z"/><path fill="#FF0000" d="M6.8,12.8c-1.3,0.3-3.4,1-4.5,1.3C2,12.6,0.1,10.1,2,8.7C3.1,7.9,5.1,7.4,5.5,9C5.7,9.9,6.5,11.9,6.8,12.8z"/><path fill="#E7E7E7" d="M2.4,14.7c3-1.8,4.8-2.5,5.8,2.5c-1,0.3-3.4,1.2-4.7,1.5C3.3,17.6,2.7,15.7,2.4,14.7z"/><path fill="#E7F1F3" d="M8,45.5c1,0.6,3-0.1,3,2.1c-2.4,1.6-3.9,1.3-4.5-0.9C7,46.3,7.6,45.9,8,45.5L8,45.5z"/><path fill="#E7F1F3" d="M6,48c-0.5-0.5,0.2-2.9-0.2-3.5c-0.3-0.6-0.5-2.3-0.2-2.7C6,41,7.7,40.4,8.3,41.2c0.6,0.6,3.1,0.8,3.8,1.3c-0.6,0.6-0.5,4.3-0.7,5.2C10.9,50.8,6,48,6,48z"/><path fill="#E7F1F3" d="M6.1,39.3c0.1-0.9,0-2,0.4-2.8c0.1-0.3,0.9-0.9,1.5-1.1c0.1,0.1,1.7,0.1,1.7,0.2c-0.5,1-2,4.5-2.4,5.5C7,41.1,5.5,40.7,6.1,39.3z"/><path d="M0.1,9.3C1,8.7,1.7,8,2.6,7.5c1.7-0.9,3.3-0.2,3.9,1.6c2.3,6.8,4.5,13.6,6.7,20.4c0.2,0.7,0.5,1.4,0.8,2.2c7.4-0.8,11.3,3.9,15,9.2c1.9-1.5,3.3-0.4,4.6,0.9C44.5,52,55.5,62.1,66.2,72.4c2.8,2.7,4.3,6.4,3.1,10.3c-1.4,4.7-3.9,8.9-9.3,9.7c-2.1,0.3-4.6-0.5-6.6-1.5c-10.4-5.2-20.4-11-29.6-18c-2.9-2.2-5.9-4.3-8.9-6.4c-1.1-0.8-1.4-1.6-1-2.9c1-2.6,1.7-5.2,2.6-7.9c-1.9-0.9-3.3-2.1-5.7-1.4c-2.7,0.8-4.2-0.7-4.8-3.5c-0.2-1-1-1.9-1.4-2.9c-0.5-1.5-0.9-3-1.2-4.6c-0.1-0.6,0-1.3,0.1-1.9c0.2-1.1,0.5-2.2,0.5-3.3C4.3,36.3,5,34.8,7,34C4.7,25.9,2.3,17.8,0,9.7C0,9.5,0.1,9.4,0.1,9.3z M8,45.5c0.8-0.2,1.6-0.3,2-1.8c-0.4-0.9-1.5-0.9-2.1-1.5c-0.6-0.7-1.3-1.1-1.8-0.3c-0.3,0.5,0.1,1.4,0.4,2C6.9,44.6,7.6,45,8,45.5c-0.5,0.4-1.6,0.2-1.5,1.2c0.6,2.2,2.1,2.5,4.5,0.9C11,45.4,9.1,46.1,8,45.5z M17.5,60.5c-0.2,0.6-0.4,1.2-0.6,1.8c-0.7,1.8-0.5,3,1.4,4.1c3.4,2.1,6.5,4.6,9.9,6.7c8.7,5.4,17.6,10.7,26.4,15.9c2.6,1.5,5.6,2,8.4,0.1c4.5-3.2,5.6-9.2,2.6-13.7c-0.7-1.1-1.7-2.1-2.7-3c-10.2-9.7-20.5-19.5-30.8-29.2c-1-0.9-1.5-0.7-2.4,0C23.8,47.7,20,53.6,17.5,60.5z M8.1,51.2c0.3,1.4,1.8,1.9,2.9,1.3c2-1.1,3.5-0.6,5,0.5c1.2,0.8,1.9,0.5,2.8-0.8c2.4-3.2,5.1-6.2,7.6-9.3c0.3-0.4,0.6-1.4,0.3-1.7c-1.7-1.9-3.3-4-5.3-5.5c-4.8-3.4-8.5-2.3-11.1,2.8c-0.3,0.6-1,1.4-0.3,2.2c0.6,0.4,1.3-0.1,2-0.8c1-1.1,2.5-1.5,3.9-2c0.4-0.2,1.1,0.6,1.7,0.9c-1.4,1.8,0.1,3.4,0.6,5c0.7,2.7-1.2,5.2-4,5c-0.5,0-1-0.3-1.4-0.4c0.5,0.2,0.2,0.5-0.2,0.8C10.9,49.9,9.8,50.4,8.1,51.2z M7.7,18.5c-1.1,0.3-2.1,0.5-2.8,1c-0.3,0.2-0.2,1.3-0.1,1.9c1,3.8,2.2,7.5,3.2,11.3c0.3,1.2,1,2.4,2.1,1.8c1-0.5,2.8-1.1,2.1-3.1c-1.3-3.8-2.5-7.7-3.8-11.5C8.3,19.4,7.9,19,7.7,18.5z M15.1,39.9c-1.2,1.5-2.2,2.6-3,3.8c-1.1,1.7,1.4,2.3,1.2,3.7c2.6,0,3.9-1,3.6-2.5C16.5,43.4,15.8,41.9,15.1,39.9z M5.9,12.4c-0.3-0.9-0.5-1.7-0.7-2.5C4.7,8.3,3.9,8.4,2.8,9.1c-1.9,1.3-0.4,2.7-0.1,4.2C3.7,13,4.6,12.8,5.9,12.4z M3,15c0.3,1,0.6,2.1,0.9,3.1c1.3-0.4,2.4-0.8,3.4-1.1C6.6,13.5,6,13.2,3,15z M6.4,39.4C6.6,40,6.9,40,7.3,39.5c0.5-1,0.9-2,1.4-3c0.2-0.4,0.4-0.6-0.3-0.4c-0.6,0.2-1.5,0.2-1.6,0.6C6.5,37.4,6.5,38.5,6.4,39.4z"/></g><g id="uniBodyTwo"><path fill="#9A27D6" d="M102.9,86.8c-0.1,0.7-0.5,1.4-0.4,2c0.3,2.7,0.6,5.4,1.1,8c2.3,11.3,7.4,21.5,13.8,30.9c3.5,5.2,7.5,10.1,11.2,15.1c1.1,1.5,2.4,2.3,4.3,1.1c0.1,0.1,0.1,0.3,0.2,0.4c-0.5,0.5-1,1.1-1.6,1.5c-12.6,9-26.7,13.9-42,15.3c-3.9,0.3-7.8,0-11.7,0c-1.2,0-1.6-0.5-1.8-1.7c-2.6-22.1-2.8-44.1,1-66.1c0.3-1.7,0.6-3.4,0.8-5.1c0.2-1,0.6-1.5,1.8-1.5c8.5-0.2,15.5-3.6,21.3-9.8c1.4-1.5,3.6-1.7,5-0.3c0.6,0.6,1.1,1.2,1.9,2c-0.7,0.1-1.1,0-1.4,0.2c-0.5,0.3-1,0.6-1.5,1c0.5,0.3,0.9,0.7,1.5,0.8c6.7,1.4,11.3,5.9,15.3,10.8c5.9,7.4,11.3,15.1,16.9,22.7c2.2,3,4.4,6,6.5,9.1c0.4,0.6,0.5,1.6,0.3,2.2c-2.6,7-7.7,11.8-13.5,16.2c-1.2,0.9-1.7,0.1-2.3-0.7c-3.6-5.1-7.2-10.2-10.7-15.3c-7.5-10.9-12.6-22.8-14.6-35.9c-0.2-1-0.5-2-0.8-3C103.4,86.8,103.1,86.8,102.9,86.8z M90,129.1c0.6,4.4,1.3,9.8,3.3,14.8c0.2,0.5,0.5,0.9,0.7,1.4c0.7,1.3,1.8,1.8,3.2,1.5c4.5-1.1,9.2-1.9,13.6-3.4c2.7-0.9,5-2.8,7.5-4.3c0.8-0.5,0.8-1.1,0.3-2.1c-2.6-5.2-5-10.5-7.4-15.8c-0.6-1.5-1.2-1.9-2.9-1.4c-5.1,1.7-10.2,3.3-15.4,4.7C90,125.3,90,125.1,90,129.1z"/><path fill="#E7F1F3" d="M127.9,15c0.4,3.8,2.1,8.7,1.9,12.8c-0.2,6.3-2.9,10.1-9.4,12.9c-0.4,0.1-0.7,0.8-1,1c-0.7,0.4,0.2-0.2-0.4,0.3c0.6,0.4-0.5-0.4,0,0c0.4,0.3,1.2,1.5,1.4,2c5,12.9-3,31.2-20.4,31.3c-2,0-1.8,0.1-4.2,0c0.6,0.7-0.5-0.1,0.1,0.6c-1.6,1-3.8,2.5-5.4,3.3c-3.4,1.7-7.4,3.4-10.9,5c-0.5,0.2-3.7-0.1-4-0.5c-1.2-1.3-3.8-5.8-5.2-5.2c3.4-1.3-3.6,0.7-0.6-0.5c-0.1-0.3,1.1,0.5,1,0.2c-1.7,0.3,0.8-0.5-0.8,0.2c-5.3,2.2-1.9,0.9-6.7,2c-2.3,0.5-4.8-0.4-7.2-0.7c-1.8-0.3-3.7-1.2-4.6-2.9c-0.4-0.8-2.4-2.9-3.1-3.5c-1.4-1.4,0.3-4.6,1.3-6.4c-6.8-1.6-9-9.1-9-10.8C40,51,40.3,45.3,43,41c3-4.7,7.3-7.3,12.8-5.9c1.6,0.4,4,1,5.6,1.3c1.2,0.2,2.4,0,3.5-0.3c4.1-1.2,1.5-3.7,6-5.1c1.3-1.1,4-3.3,5.5-4.6c0.8,0.9,3.3,3.9,4,4.6c1.6,1.5,1,1.5,3.2,1c1.4-0.3,1-1.2,1.2-3.7c0.9,0.4,2,0.9,2.4,1.1c4.8,2.7,9.3,4.1,14.7,3.1c2.5-0.4,2.5-1.3,2-3.9c0.9,0.7,2.4,1.1,3,1.5c0.4,0.3,0.3-0.7,0.7-0.4c0.2-0.5,0.2,0.1,0.1-0.4c-0.3-2.5,0.3-4.1,1.6-6.2c1.3-2,3.4-3.3,5.7-3.9C118.9,18.1,123.7,16.2,127.9,15z"/><path fill="#9A27D6" d="M147.9,124.1c-1.5,6.6-14.2,19.2-15.6,18.9c6.7,6.7,0.9,0-6.3,8c-12.7,8.4-10.6,6.7-25.4,9.1c2.4,0.7-27.2,2-24.7,2.4c2.8,0.5-21.7-5.6-18.9-5.5c2.8,0-12.9-5.7-12.9-8.4c0.2-5.8,2.2-9.9,2.3-15.8c0-1.3,0.5-2.4,1.5-6.8c1.3-7.3,4.8-1.8,0.8-3.1c-1.3-0.5,0.5-4,0.8-5.3c2.8-12.8,6.7-23.6,12.6-35.3c1.1-2.3,9.2-5.5,10.6-3.5c3.9,7.2-2.1,11.6,24.8-4.1c6.4,0.2,4.4-0.2,7.2,0.1c2.9,0.3,3.4,4.7,6.6,6.7C125.9,90.7,138,109.9,147.9,124.1z"/><path fill="#9DA7A9" d="M105.5,49.6c-0.1,5.8-2.8,11.3-8.1,13.7c-7.6,3.3-14.8-1.1-16.8-7c-1.7-5.1-0.7-12,3-16c3.2-3.5,8-5.1,12.6-4.1c1.4,0.3,4.7,1.9,5.6,3C104.4,42.1,105.5,45.7,105.5,49.6z"/><path fill="#E7F1F3" d="M155.9,147.2c-1.1,3.3-1.2,1.7-3,5.4c-1.4-2.4-1.4-2.1-1-0.9c0.1,0.4-0.5,1-0.6,1.5c-0.5-0.2-2.4,0.4-2.7,0c-0.9-1.2-1.8-3.2-2.8-4.3c-0.7-0.8-1.2-1.5-1.9-1.3c-0.9,0.3-0.6,1.7-1.2,2.6c-0.3,0.5-0.9,2.2-2.3,2.1c-1.6-1.8-3.2-3.5-4.2-5.1c-2.3-3.7-3.3-4,0.1-6.8c3.7-3.1,8-8.7,10.3-13.5c2.9,3.4,7.4,7.2,8.7,11.2C154.7,137.8,156.7,143.4,155.9,147.2z"/><path fill="#9A27D6" d="M63.7,131.5c0,0.7,0,2,0,3.3c-0.1,2.9-0.3,5.8-0.5,8.6c0,1.1-0.5,1.6-1.6,1.6c-5,0.2-9.7-0.9-14.2-2.8c-0.4-0.2-0.9-1.1-0.9-1.6c0.7-4.2,1.4-8.3,2.1-12.3C53.7,129.4,58.6,130.5,63.7,131.5z"/><path fill="#B956EC" d="M126.2,74.6c-4.1,1.3-10.3-4.5-8.1-8.8c3-5.9,4.1-12.7,2.5-19.1c-0.3-1.1-1.4-3.9-1.9-5.5c1.2-0.2,4.9-1.6,5.7-1.2c1.8,1,3.2,3.6,1.9,5.4c-0.3,0.3-0.5,0.8-0.5,1.2c0,0.7,0-0.1,0.4,0.4c0.2,0.3,0.5,1,1.4,0.9c1.1,1.9,2.3,6.9,1.5,9.8c-0.9-1.2-0.6-0.9-1.5-1.7c-1.4-1.8,0.5,0.6-0.7-1.1c0.1,0.6-0.6-1.2-0.3-0.7c2.7,3.8,1.5,8-0.9,12c-0.8,1.3-0.8,2.4-0.9,3.9C124.7,71.6,125.9,73.2,126.2,74.6z"/><path fill="#B956EC" d="M85.7,24.4c1.3,0,2.6,1,3.8,0.9c2.1-0.2,2.4-0.6,3.7-2.3c1.4-1.9,1.5-3.8-0.7-6c4.8,0.7,11.3,2.3,14.7,5.1c0.4,0.3,1.6,2.5,1.6,3c-0.1,1.1-0.8,3.3-1,4.7c-0.7-0.3-1.8-0.7-2.5-0.9c-0.5-0.2-0.9,0-1.2,0.2c-0.3,0.2,0.3,0.2,0.3,0.7c0.1,0.7-0.6,1.4-0.4,2.3c-5.7,1-13,0.7-17.8-2.4c-0.6-0.4-1.2-0.9-1.8-1.2L85.7,24.4z"/><path fill="#E7F1F3" d="M70.7,7.8c2,0.5,5,1.3,6.8,1.7c3.2,0.7,5.4,4.8,5.9,7.1c-2,2-4.2,3.1-5.7,4.9c-1.3,1.5-1.6,3.3-1.2,5.3c0.1,0.4-1.2,1.2-1.4,1.7c-0.5-0.2-1.5,0.5-1.8,0.1c-2.4-3.1-5.4-7.9-5-11.8C68.6,14.3,70.4,10.4,70.7,7.8z"/><path fill="#CABF24" d="M80.9,5.4c3.9,4.8,9,8.4,12.8,13.3c0.3,0.4,0,3.6-0.3,3.9c-0.9,0.9-2.3,2.8-3.4,3.4c-1.4,0.7-4.7-1.4-5.2-3.2C83,17.1,82.8,11.1,80.9,5.4z"/><path fill="#B956EC" d="M88.5,30.3c-0.5-0.3-2.8-1.2-3.3-1.5c-0.2,0.5,0.2,0.1,0.2,0.6c0,1.1-0.9,1.4-0.7,2.4c-2.8,0.2-8.4-3.6-8.7-6.5c-0.3-2.6,4.5-8.3,7.7-8.9c0.8,2.9,5.2,10.8,6,13.8L88.5,30.3z"/><path fill="#9DA7A9" d="M70.7,32.2c-1.2,1.3-3.9,2.8-5,3.7c-0.4,0.4-2.4,1.3-3,1.2c-1.8-0.4-4.2-1.5-5.9-2c0.8-2.9,3.8-6.3,6.9-6.5C65.9,28.5,69.7,29.9,70.7,32.2z"/><path fill="#9A27D6" d="M49.6,123.9c5,1.3,9.6,2.5,14.6,3.8c-0.3,0.3-0.6,0.9-1.1,1c-4.6,0.3-8.9-0.9-13.1-2.7C49.7,125.8,49.7,124.6,49.6,123.9z"/><path fill="#9A27D6" d="M81.4,84.5c1.8-0.8,3.7-1.6,5.5-2.5c3-1.6,5.9-3.4,8.8-5c0.9-0.5,1.9-0.7,2.9-0.7C93.8,80.8,88.2,84,81.4,84.5z"/><path fill="#574E48" d="M79.9,44.4c-3.1-4.2-8.1-8.2-13.9-8.5c1.9-1.8,5.2-3.1,6.8-2.2C76.3,35.4,84.3,42.3,79.9,44.4z"/><path fill="#F07BAF" d="M69.6,65.1c-7.2,9.1-14.4,5.8-18.4,3.1c2.1-0.2,6.7-0.9,8.9-1.3C62.4,66.5,67.4,65.7,69.6,65.1z"/><path fill="#6A7588" d="M102.6,61.1c0.6-3.1,2.2-10,2.7-16.1C110.6,51.2,106.7,60.9,102.6,61.1z"/><path fill="#9A27D6" d="M71.5,79.3c0.8,1.5,1.6,2.7,2.3,3.9c-0.1,0.1-0.2,0.2-0.3,0.3c-1.2-1.1-2.5-2.2-4-3.5C70.4,79.7,70.9,79.5,71.5,79.3z"/><path d="M90,129.1c0-4,0.1-3.8,2.9-4.5c5.2-1.4,10.3-3,15.4-4.7c1.7-0.6,2.2-0.1,2.9,1.4c2.4,5.3,4.9,10.6,7.4,15.8c0.5,1,0.5,1.6-0.3,2.1c-2.5,1.5-4.8,3.4-7.5,4.3c-4.4,1.5-9,2.3-13.6,3.4c-1.4,0.3-2.5-0.2-3.2-1.5c-0.2-0.4-0.5-0.9-0.7-1.4C91.3,138.8,90.6,133.5,90,129.1z M110.7,126.1c-5.7,2.9-11.7,4.8-18.4,5.1c1.1,4.3,2.2,8.4,3.3,12.5c0.1,0.4,1.1,1,1.6,0.9c3.5-0.6,7.1-1.2,10.5-2.3c2.6-0.9,5-2.5,7.4-3.9c0.4-0.2,0.7-1.3,0.5-1.8C114.1,133.1,112.4,129.7,110.7,126.1z M92.3,129.3c3.5-0.8,6.8-1.4,10.1-2.3c2.1-0.6,4.1-1.5,6.1-2.3c1.2-0.5,1.3-1.3,0.7-1.9c-5.8,1.5-11.4,3-17.2,4.5C92.1,127.8,92.2,128.4,92.3,129.3z"/><path fill="#9A27D6" d="M110.7,126.1c1.7,3.5,3.3,7,4.9,10.5c0.2,0.4-0.1,1.5-0.5,1.8c-2.4,1.4-4.8,3-7.4,3.9c-3.4,1.1-7,1.6-10.5,2.3c-0.5,0.1-1.4-0.4-1.6-0.9c-1.2-4.1-2.2-8.2-3.3-12.5C99.1,130.9,105,129.1,110.7,126.1z"/><path fill="#9A27D6" d="M92.3,129.3c-0.1-0.9-0.2-1.5-0.3-2c5.7-1.5,11.4-3,17.2-4.5c0.6,0.6,0.4,1.5-0.7,1.9c-2,0.8-4,1.7-6.1,2.3C99.1,127.9,95.8,128.6,92.3,129.3z"/><path fill="#CDD7D9" d="M98.4,64.8L98.4,64.8c1.7-1.2,2.1-3.5,0.9-5.1L85.9,40.3c-1.2-1.7,0.2-2.2-1.5-1.1l-0.9,2.3c-1.7,1.2-4,2.9-2.8,4.5l12.6,17.8C94.4,65.5,96.7,65.9,98.4,64.8z"/><path fill="#CDD7D9" d="M104.2,57.2l0.3-1.2c0.2-1.2,1.8-0.9,0.6-2.6L92.9,36.6c-1.2-1.7-1.4-0.9-3.1,0.3l-0.5-0.3c-1.7,1.2-1.7,1.1-0.6,2.8l13.4,19.4C103.4,60.4,102.5,58.3,104.2,57.2z"/><path fill="#CDD7D9" d="M65.1,36.8l0.2-0.8c1.7-1.2,2.5,0.5,1.3-1.2l-3.5-5.2c-1.2-1.7-1-0.9-2.7,0.3l-1.3,1c-1.7,1.2-1-0.5,0.2,1.2l3.6,5C64.1,38.7,63.5,37.9,65.1,36.8z"/><path d="M78.8,0c1.7,1.9,3.3,3.9,5,5.8c2.5,2.9,4.9,5.9,7.5,8.8c0.6,0.7,1.6,1.4,2.5,1.5c5.4,0.8,10.6,2.2,15.1,6.1c2.8-4.4,7.4-4.6,11.8-5.8c2.1-0.5,4-1.6,5.9-2.6c1.1-0.6,1.7-0.6,2.1,0.6c2,5.5,3.3,11.1,2.2,17c-0.5,2.8-1.9,5.2-4.2,7c-0.4,0.3-0.7,0.7-1.1,1.1c2,1.8,3.5,3.8,2.3,6.6c-0.1,0.3,0.4,0.9,0.7,1.3c2.9,4,4.1,8,1.2,12.6c-1.6,2.5-2.4,5.6-3.4,8.5c-0.9,2.8,0.1,4.1,3.2,4.2c0.6,0,1.1,0,1.7,0c-0.7,2.2-3,3.7-5.7,3.8c-3.6,0.1-6.9-2.9-8.6-7.7c-1.5,1.2-2.9,2.6-4.4,3.6c-1.5,1-3.3,1.8-5.1,2.8c1.8,1.9,3.2,4.2,5.3,5.6c7.6,4.8,13,11.7,18.3,18.8c5.7,7.7,11.3,15.4,16.9,23.2c0.4,0.5,0.7,1.5,0.5,2c-0.5,1.4-0.2,2.1,0.8,3.2c2,2.1,3.7,4.4,5.5,6.7c1.6,2.2,2.4,4.6,1.9,7.4c-0.1,0.7,0.4,1.5,0.6,2.3c0,0.6,0,1.3,0,1.9c-0.5,1.4-0.8,2.9-1.5,4.3c-0.4,0.9-1.2,1.7-1.8,2.5c-0.2,0.3-0.7,0.3-1,0.5c-2.4,1.9-4,1.6-5.7-0.9c-0.8-1.3-1.6-2.6-2.7-4.3c-0.4,0.9-0.7,1.5-0.9,2.1c-1.1,3.1-3,3.6-5.3,1.1c-1.4-1.5-2.5-3.2-3.6-4.6c-4.8,2.9-9.5,5.7-14.3,8.5c-5.2,3.1-11,4.3-16.7,5.8c-0.7,0.2-7.3,1.6-14.1,2.1c-6.8,0.5-13.8,0-14.5-0.1c-9.3-1.3-18.1-4.2-26.2-9c-1.8-1-3.4-2.2-5-3.6c-0.6-0.5-1-1.6-0.9-2.3c2.5-19,6.5-37.6,13.2-55.5c0.7-1.9,3.7-8.6,4.7-11c0.2-0.4-2.9,0.2-5.9-0.9c-3.1-1.1-4.3-3.7-6-5.1c-3.2-2.6-2.5-8.6-2.5-8.6s-4.5-3.3-6.3-7.7c-1.7-4.2-0.6-9.6-0.6-9.9c0.7-4.3,2.1-8.3,5.1-11.6c2.5-2.7,5.5-4.4,9.3-4.2c0.6,0,1.5-0.7,1.9-1.4c3.2-5.4,9.5-6.8,14.6-3.3c0.5,0.3,1,0.7,1.5,1.1c0.1-0.3,0.2-0.5,0.1-0.5c-0.1-0.2-0.3-0.4-0.4-0.6c-3.4-4.5-4.7-9.5-3.5-15c0.4-1.8,0.6-3.7,0.9-5.5c0.2-1.8,0.7-2.1,2.6-1.6c2.6,0.8,5.1,1.5,7.6,2.2c-0.6-3.1-1.1-6-1.7-8.9C78,0,78.4,0,78.8,0z M85.6,27.3c-0.8-2.9-1.6-5.9-2.4-8.8c-3.2,0.6-6.2,4.2-5.9,6.8c0.3,2.9,3.8,6,6.6,5.8c-0.2-1.1-0.4-2.1-0.4-3.2c0-0.5,0.4-1.1,0.6-1.6C84.5,26.6,85,26.9,85.6,27.3c0.6,0.3,1.2,0.7,1.8,1c4.8,3.1,10,3.9,15.8,3c-0.2-0.9-0.5-1.6-0.5-2.4c0-0.5,0-1.3,0.3-1.5c0.3-0.2,1,0,1.6,0.1c0.7,0.2,1.4,0.6,2.2,0.9c0.2-1.4,0.4-2.5,0.5-3.7c0-0.5-0.2-1.2-0.6-1.5c-3.4-2.8-7.5-4.1-12.3-4.8c2.2,2.3,1.6,4.2,0.2,6c-1.3,1.7-3.1,2.5-5.1,2.6C88.1,27.2,86.8,27.2,85.6,27.3z M102.9,86.8c0.2,0,0.5,0,0.7,0c0.3,1,0.6,2,0.8,3c2,13.2,7.1,25,14.6,35.9c3.5,5.1,7.1,10.2,10.7,15.3c0.5,0.8,1.1,1.6,2.3,0.7c5.8-4.3,10.9-9.2,13.5-16.2c0.2-0.6,0.1-1.6-0.3-2.2c-2.1-3.1-4.3-6.1-6.5-9.1c-5.6-7.6-11-15.3-16.9-22.7c-4-5-8.6-9.4-15.3-10.8c-0.5-0.1-1-0.6-1.5-0.8c0.5-0.3,1-0.7,1.5-1c0.3-0.1,0.7-0.1,1.4-0.2c-0.8-0.9-1.3-1.5-1.9-2c-1.5-1.4-3.6-1.2-5,0.3c-5.8,6.1-12.8,9.6-21.3,9.8c-1.2,0-1.6,0.5-1.8,1.5c-0.3,1.7-0.5,3.4-0.8,5.1c-3.7,22-3.6,44-1,66.1c0.1,1.2,0.5,1.7,1.8,1.7c3.9,0,7.8,0.3,11.7,0c15.4-1.3,29.4-6.3,42-15.3c0.6-0.4,1.1-1,1.6-1.5c-0.1-0.1-0.1-0.3-0.2-0.4c-1.9,1.2-3.2,0.4-4.3-1.1c-3.7-5-7.7-9.9-11.2-15.1c-6.4-9.5-11.5-19.6-13.8-30.9c-0.5-2.6-0.8-5.3-1.1-8C102.4,88.1,102.7,87.4,102.9,86.8z M127.7,16.5c-4.2,1.2-7.9,2.3-11.6,3.4c-2.3,0.6-4.2,1.9-5.5,3.9c-1.3,2.1-1.7,4.4-1.4,6.8c0.1,0.5-0.4,1.1-0.6,1.6c-0.4-0.3-0.9-0.6-1.3-0.9c-0.6-0.4-1.1-0.8-2-1.5c0.5,2.6,0.1,3.2-2.4,3.6c-5.4,1-10.5,0-15.3-2.6c-0.4-0.2-0.8-0.4-1.7-0.9c1.5,2.3,0.2,2.8-1.2,3.1c-2.2,0.5-4.1-0.1-5.7-1.6c-0.7-0.7-1.3-1.5-2.1-2.4c-1.5,1.3-2.8,2.4-4.1,3.5c1.8,1.2,3.6,2.1,5.1,3.3c1.5,1.3,2.8,3,4.2,4.5c0.3-0.3,0.7-0.7,1.1-1c5.6-5.6,13.8-6.1,20-1.2c5.8,4.6,8.3,12.4,5.7,18.4c-3.7,8.6-16.5,12.1-24,6.6c-5.5-4-7-9.6-5.9-16c0.1-0.7,0.1-1.6-0.3-2.1c-1-1.4-2-2.9-3.2-4.1c-2.8-2.6-5.8-4.4-9.9-3.2c-1.1,0.3-2.4,0.2-3.6-0.1c-1.6-0.3-3.2-0.9-4.8-1.3c-5.4-1.4-9.2,0.1-12.2,4.9c-2.7,4.3-3.7,9-3.3,14c0.5,5.8,3.6,9.3,9.3,10.6c7.2,1.7,13.7,0.1,19.7-4.3c0.7-0.5,1.4-0.8,2.5-1.4c0.2,5.1-3.2,7.5-6.1,9.7c-6,4.7-12.1,2.5-17.9-1c-1,1.8-0.8,3.3,0.6,4.6c0.7,0.7,1.4,1.4,1.8,2.2c0.9,1.7,2.4,2.8,4.2,3.1c2.4,0.3,5.1,0.8,7.4,0.3c4.9-1.1,9.6-2.9,14.4-4.3c1.6-0.5,3.4-0.6,5.1-0.8c0.1,0.3,0.2,0.7,0.3,1c-3,1.2-6,2.4-9.4,3.7c1.3,1.6,2.3,3.1,3.6,4.4c0.3,0.4,1.3,0.5,1.8,0.3c3.5-1.6,7-3.3,10.4-5c1.7-0.9,3.2-1.9,4.9-2.9c-0.6-0.7-1-1.1-1.6-1.9c2.4,0.1,4.4,0.3,6.4,0.3c17.4-0.2,24.7-17,19.7-29.9c-0.2-0.5-0.6-0.9-1.1-1.2c-0.5-0.4-1.2-0.8-1.7-1.1c0.6-0.5,1.3-0.9,1.9-1.3c0.3-0.2,0.7-0.2,1.1-0.3c6.5-2.7,9.8-5.2,10-11.5C128.9,24.4,128,20.3,127.7,16.5z M73.8,160.6c-3-24.8-3-49.3,2.3-73.6c-3.1-0.9-5.4-2.5-7.2-4.9c-1.4-2-4.7-1.5-5.8,0.7c-5.8,11.8-9.6,24.2-12.5,37c-0.3,1.3-0.1,2,1.3,2.4c4,1.3,7.9,2.8,12.2,2.6c1,0,1.7,0.2,1.7,1.5c-0.1,5.8-0.1,11.7-0.3,17.5c-0.1,2.8-0.7,3.4-3.5,3.4c-2.9,0-5.8-0.3-8.6-0.8c-2.5-0.4-4.9-1.4-7.3-2.1c-1.4,4.5-1.3,4.8,2.4,7.1c6.5,4,13.5,6.8,21,8.4C70.9,160.1,72.2,160.3,73.8,160.6z M104.5,50.2c0-4-1.3-7.5-3.9-10.3c-1-1.1-2.5-2-3.9-2.3c-4.5-1-8.7,0-12,3.5c-3.7,4-5.1,8.8-3.3,13.9c2,5.9,7.5,10.8,15.1,7.5C101.8,60.2,104.4,56,104.5,50.2z M155,146.5c0.8-3.8-2.3-5.9-3-8.9c0.6,0.4,1.3,0.8,1.9,1.2c-1.3-4.1-4.2-6.9-7.1-10.3c-2.3,4.8-5.3,8.4-9,11.5c-3.4,2.8-3.4,2.9-1.1,6.6c1,1.6,2.5,2.9,4,4.8c0.4-1.3,0.5-1.9,0.9-2.4c0.7-0.9,1.3-2.3,2.2-2.5c0.7-0.2,1.9,0.9,2.6,1.7c1,1.1,1.6,2.5,2.5,3.6c0.3,0.4,1,0.4,1.4,0.6c0.1-0.5,0.5-1.1,0.3-1.5c-0.4-1.2-0.9-2.2-1.4-3.4c-0.3-0.7-0.7-1.5-1-2.2c0.3-0.1,0.5-0.3,0.8-0.4c1.2,2.1,2.4,4.1,3.8,6.5c1.8-3.7-1-6.4-1.9-9.4c0.2-0.1,0.4-0.2,0.6-0.3C152.7,143.2,153.7,144.7,155,146.5z M63.7,131.5c-5.1-1.1-10-2.1-15.1-3.1c-0.7,4-1.5,8.1-2.1,12.3c-0.1,0.5,0.4,1.4,0.9,1.6c4.6,1.8,9.3,2.9,14.2,2.8c1.1,0,1.6-0.5,1.6-1.6c0.1-2.9,0.3-5.8,0.5-8.6C63.8,133.5,63.7,132.2,63.7,131.5z M124.5,73.9c-0.3-1.5-1-2.9-0.9-4.3c0.1-1.5,0.7-3.1,1.5-4.5c2.4-4.1,2.3-7.1-0.4-10.9c-0.3-0.5-0.3-1.2-0.4-1.8c0.7,0.2,1.6,0.2,2,0.6c0.9,0.8,1.5,1.9,2.4,3.1c0.8-3-0.6-5.1-1.8-7.1c-0.9,0.1-1.9,0.4-2.1,0.1c-0.4-0.5-0.3-1.4-0.3-2.1c0-0.4,0.2-0.9,0.5-1.2c1.3-1.8,0.6-3.6-1.2-4.5c-0.8-0.4-2.3,0.3-3.5,0.5c0.5,1.6,1,2.7,1.3,3.8c1.6,6.4,1,12.6-2,18.5C117.4,68.4,120.4,73.7,124.5,73.9z M71.2,9c-0.4,2.6-0.9,5.1-1.1,7.6c-0.4,4,1,7.4,3.3,10.6c0.3,0.4,0.9,0.4,1.4,0.6c0.2-0.5,0.6-1,0.5-1.4c-0.4-2,0-3.9,1.3-5.4c1.6-1.8,3.4-3.3,5.4-5.3c-0.5-2.3-1.9-4.6-5.1-5.3C75,10,73.2,9.5,71.2,9z M82.1,7.2c-0.1,0.1-0.2,0.2-0.4,0.3c1.8,5.3,3.6,10.5,5.2,15.9c0.6,1.8,1.6,2.1,3,1.5c1.1-0.6,2.2-1.5,3-2.4c0.3-0.3,0.2-1.3-0.1-1.7C89.4,16.1,85.8,11.6,82.1,7.2z M68.1,31.9c-1-2.4-1.7-2.9-3.9-2.7c-3.1,0.2-5.8,2.3-6.6,5.1c1.8,0.5,3.5,1.1,5.3,1.4c0.6,0.1,1.4-0.1,1.9-0.4C66,34.3,66.9,33.2,68.1,31.9z M49.6,123.9c0.1,0.7,0.1,1.9,0.4,2.1c4.2,1.8,8.5,3,13.1,2.7c0.4,0,0.8-0.7,1.1-1C59.2,126.4,54.6,125.2,49.6,123.9z M81.4,84.5c6.8-0.6,12.3-3.7,17.3-8.3c-1.1,0-2.1,0.2-2.9,0.7c-3,1.6-5.9,3.4-8.8,5C85.1,83,83.3,83.7,81.4,84.5z M80,43c-0.9-4-3.8-6.4-7.2-8.2c-1.7-0.9-3.4-1.3-5.4,0.5C73.2,35.7,76.9,38.9,80,43z M67.3,66.6c-2.3,0.6-4.4,1.4-6.6,1.8c-2.2,0.4-4.5,0.4-6.7,0.6C58,71.7,64.1,70.7,67.3,66.6z M103.3,59.9c3.9-2.5,5.6-9,2.8-13.3C106.5,51.5,106.1,55.9,103.3,59.9z M71.5,79.3c-0.6,0.2-1.1,0.4-2.1,0.7c1.5,1.3,2.7,2.4,4,3.5c0.1-0.1,0.2-0.2,0.3-0.3C73.1,82,72.4,80.8,71.5,79.3z"/><path d="M59.9,50.4c-0.7-0.1-1.1-0.8-1.2-1.4c-0.2-1.2,1.5-2.6,3.1-2.4c0.6,0.1,1.6,0.9,1.7,1.5C63.7,49.1,62.7,50.5,59.9,50.4z"/><path d="M50.2,45.6c-0.4,0-1.1-0.8-1.1-1.4c-0.2-2.1,0.9-3.8,2-3.5C53.8,41.3,52.2,45.8,50.2,45.6z"/></g></g></svg>